<svg width="202" height="142" xmlns="http://www.w3.org/2000/svg" xmlns:xlink="http://www.w3.org/1999/xlink" overflow="hidden"><defs><clipPath id="clip0"><rect x="676" y="161" width="202" height="142"/></clipPath></defs><g clip-path="url(#clip0)" transform="translate(-676 -161)"><path d="M677.5 243.167 862.5 243.167 862.5 243.833 677.5 243.833ZM862.5 243.5 859.833 239.5 867.833 243.5 859.833 247.5Z"/><path d="M0.333333-2.66644e-07 0.333434 125.911-0.333233 125.911-0.333333 2.66644e-07ZM0.000100721 125.911 4.0001 123.245 0.000104987 131.245-3.9999 123.245Z" transform="matrix(1 0 0 -1 766.5 302.745)"/><path d="M684.5 193.5C696.75 238.5 708.999 283.5 721.333 283.5 733.666 283.5 753.198 211.179 758.5 193.5" stroke="#000000" stroke-width="0.666667" stroke-miterlimit="8" fill="none" fill-rule="evenodd"/><path d="M0 0C25.889 0 51.7779 18.3468 51.7779 36.6935 51.7779 55.0402 73.0001 73.387 94.2223 73.387" stroke="#000000" stroke-width="0.666667" stroke-miterlimit="8" fill="none" fill-rule="evenodd" transform="matrix(1.83697e-16 1 1 -1.83697e-16 774.5 192.5)"/><text font-family="Times New Roman,Times New Roman_MSFontService,sans-serif" font-style="italic" font-weight="400" font-size="13" transform="translate(734.841 180)">f ′<tspan font-style="normal" font-size="13" x="10" y="0">(</tspan>x<tspan font-style="normal" font-size="13" x="20.5" y="0">)</tspan><tspan font-size="13" x="36.4807" y="78">O</tspan><tspan font-size="13" x="128.159" y="78">x</tspan></text></g></svg>