<svg width="201" height="142" xmlns="http://www.w3.org/2000/svg" xmlns:xlink="http://www.w3.org/1999/xlink" overflow="hidden"><defs><clipPath id="clip0"><rect x="677" y="306" width="201" height="142"/></clipPath></defs><g clip-path="url(#clip0)" transform="translate(-677 -306)"><path d="M677.5 388.167 862.5 388.167 862.5 388.833 677.5 388.833ZM862.5 388.5 859.833 384.5 867.833 388.5 859.833 392.5Z"/><path d="M0.333333-2.66644e-07 0.333434 125.911-0.333233 125.911-0.333333 2.66644e-07ZM0.000100721 125.911 4.0001 123.245 0.000104987 131.245-3.9999 123.245Z" transform="matrix(1 0 0 -1 767.5 447.745)"/><path d="M0 0C12.2496 55 24.4992 110 36.8326 110 49.1659 110 68.6983 21.6071 74 0" stroke="#000000" stroke-width="0.666667" stroke-miterlimit="8" fill="none" fill-rule="evenodd" transform="matrix(1 0 0 -1 777.5 445.5)"/><text font-family="Times New Roman,Times New Roman_MSFontService,sans-serif" font-style="italic" font-weight="400" font-size="13" transform="translate(735.09 325)">f ′<tspan font-style="normal" font-size="13" x="10" y="0">(</tspan>x<tspan font-style="normal" font-size="13" x="20.5" y="0">)</tspan><tspan font-size="13" x="36.4808" y="78">O</tspan><tspan font-size="13" x="128.159" y="78">x</tspan></text><path d="M0 0 60.8371 114.186" stroke="#000000" stroke-width="0.666667" stroke-miterlimit="8" fill="none" fill-rule="evenodd" transform="matrix(1 0 0 -1 693.5 447.687)"/></g></svg>