<?xml version="1.0" encoding="UTF-8" standalone="no"?>
<!DOCTYPE svg PUBLIC "-//W3C//DTD SVG 1.1//EN" "http://www.w3.org/Graphics/SVG/1.1/DTD/svg11.dtd">
<!-- 由 Microsoft Visio, SVG Export 生成 clue_tree.svg 页-1 -->
<svg xmlns="http://www.w3.org/2000/svg" xmlns:xlink="http://www.w3.org/1999/xlink" xmlns:ev="http://www.w3.org/2001/xml-events"
		xmlns:v="http://schemas.microsoft.com/visio/2003/SVGExtensions/" width="3.47186in" height="1.1849in"
		viewBox="0 0 249.974 85.313" xml:space="preserve" color-interpolation-filters="sRGB" class="st7">
	<v:documentProperties v:langID="2052" v:metric="true" v:viewMarkup="false"/>

	<style type="text/css">
	<![CDATA[
		.st1 {fill:#ffffff;stroke:#000000;stroke-linecap:round;stroke-linejoin:round;stroke-width:0.25}
		.st2 {fill:#000000;font-family:Courier New;font-size:0.833336em}
		.st3 {fill:#bfbfbf;stroke:#000000;stroke-linecap:round;stroke-linejoin:round;stroke-width:0.25}
		.st4 {stroke:#000000;stroke-linecap:round;stroke-linejoin:round;stroke-width:0.75}
		.st5 {stroke:#000000;stroke-dasharray:0.75,1.5;stroke-linecap:round;stroke-linejoin:round;stroke-width:0.75}
		.st6 {fill:#000000;stroke:#000000;stroke-linecap:round;stroke-linejoin:round;stroke-width:0.24}
		.st7 {fill:none;fill-rule:evenodd;font-size:12px;overflow:visible;stroke-linecap:square;stroke-miterlimit:3}
	]]>
	</style>

	<g v:mID="0" v:index="1" v:groupContext="foregroundPage">
		<title>页-1</title>
		<v:pageProperties v:drawingScale="0.0393701" v:pageScale="0.0393701" v:drawingUnits="24" v:shadowOffsetX="8.50394"
				v:shadowOffsetY="-8.50394"/>
		<v:layer v:name="连接线" v:index="0"/>
		<g id="shape2114-1" v:mID="2114" v:groupContext="shape" transform="translate(113.619,-62.5108)">
			<title>圆角矩形.2114</title>
			<desc>a</desc>
			<v:userDefs>
				<v:ud v:nameU="CTypeTopLeftSnip" v:prompt="" v:val="VT0(0):5"/>
				<v:ud v:nameU="CTypeTopRightSnip" v:prompt="" v:val="VT0(0):5"/>
				<v:ud v:nameU="CTypeBotLeftSnip" v:prompt="" v:val="VT0(0):5"/>
				<v:ud v:nameU="CTypeBotRightSnip" v:prompt="" v:val="VT0(0):5"/>
				<v:ud v:nameU="CornerLockHoriz" v:prompt="" v:val="VT0(1):5"/>
				<v:ud v:nameU="CornerLockVert" v:prompt="" v:val="VT0(1):5"/>
				<v:ud v:nameU="CornerLockDiag" v:prompt="" v:val="VT0(0):5"/>
				<v:ud v:nameU="TopLeftOffset" v:prompt="" v:val="VT0(0.15748031496063):24"/>
				<v:ud v:nameU="TopRightOffset" v:prompt="" v:val="VT0(0.15748031496063):24"/>
				<v:ud v:nameU="BotLeftOffset" v:prompt="" v:val="VT0(0.15748031496063):24"/>
				<v:ud v:nameU="BotRightOffset" v:prompt="" v:val="VT0(0.15748031496063):24"/>
				<v:ud v:nameU="visVersion" v:prompt="" v:val="VT0(15):26"/>
				<v:ud v:nameU="visMasterStencil" v:prompt="" v:val="VT4(Basic_M.vssx)"/>
				<v:ud v:nameU="TopLeftOffset" v:prompt="" v:val="VT0(0.078740154836949):1"/>
				<v:ud v:nameU="TopRightOffset" v:prompt="" v:val="VT0(0.078740154836949):1"/>
				<v:ud v:nameU="BotLeftOffset" v:prompt="" v:val="VT0(0.078740154836949):1"/>
				<v:ud v:nameU="BotRightOffset" v:prompt="" v:val="VT0(0.078740154836949):1"/>
			</v:userDefs>
			<v:textBlock v:margins="rect(4,4,4,4)" v:tabSpace="42.5197"/>
			<v:textRect cx="11.3386" cy="73.9744" width="22.68" height="22.6772"/>
			<path d="M5.67 85.31 L17.01 85.31 A5.6692 5.6692 -180 0 0 22.68 79.64 L22.68 68.31 A5.6692 5.6692 -180 0 0 17.01 62.64
						 L5.67 62.64 A5.6692 5.6692 -180 0 0 0 68.31 L0 79.64 A5.6692 5.6692 -180 0 0 5.67 85.31 Z" class="st1"/>
			<text x="8.34" y="76.97" class="st2" v:langID="2052"><v:paragraph v:horizAlign="1"/><v:tabList/>a</text>		</g>
		<g id="shape2115-4" v:mID="2115" v:groupContext="shape" transform="translate(158.974,-31.3061)">
			<title>圆角矩形.2115</title>
			<desc>c</desc>
			<v:userDefs>
				<v:ud v:nameU="CTypeTopLeftSnip" v:prompt="" v:val="VT0(0):5"/>
				<v:ud v:nameU="CTypeTopRightSnip" v:prompt="" v:val="VT0(0):5"/>
				<v:ud v:nameU="CTypeBotLeftSnip" v:prompt="" v:val="VT0(0):5"/>
				<v:ud v:nameU="CTypeBotRightSnip" v:prompt="" v:val="VT0(0):5"/>
				<v:ud v:nameU="CornerLockHoriz" v:prompt="" v:val="VT0(1):5"/>
				<v:ud v:nameU="CornerLockVert" v:prompt="" v:val="VT0(1):5"/>
				<v:ud v:nameU="CornerLockDiag" v:prompt="" v:val="VT0(0):5"/>
				<v:ud v:nameU="TopLeftOffset" v:prompt="" v:val="VT0(0.15748031496063):24"/>
				<v:ud v:nameU="TopRightOffset" v:prompt="" v:val="VT0(0.15748031496063):24"/>
				<v:ud v:nameU="BotLeftOffset" v:prompt="" v:val="VT0(0.15748031496063):24"/>
				<v:ud v:nameU="BotRightOffset" v:prompt="" v:val="VT0(0.15748031496063):24"/>
				<v:ud v:nameU="visVersion" v:prompt="" v:val="VT0(15):26"/>
				<v:ud v:nameU="visMasterStencil" v:prompt="" v:val="VT4(Basic_M.vssx)"/>
				<v:ud v:nameU="TopLeftOffset" v:prompt="" v:val="VT0(0.078740154836949):1"/>
				<v:ud v:nameU="TopRightOffset" v:prompt="" v:val="VT0(0.078740154836949):1"/>
				<v:ud v:nameU="BotLeftOffset" v:prompt="" v:val="VT0(0.078740154836949):1"/>
				<v:ud v:nameU="BotRightOffset" v:prompt="" v:val="VT0(0.078740154836949):1"/>
			</v:userDefs>
			<v:textBlock v:margins="rect(4,4,4,4)" v:tabSpace="42.5197"/>
			<v:textRect cx="11.3386" cy="73.9744" width="22.68" height="22.6772"/>
			<path d="M5.67 85.31 L17.01 85.31 A5.6692 5.6692 -180 0 0 22.68 79.64 L22.68 68.31 A5.6692 5.6692 -180 0 0 17.01 62.64
						 L5.67 62.64 A5.6692 5.6692 -180 0 0 0 68.31 L0 79.64 A5.6692 5.6692 -180 0 0 5.67 85.31 Z" class="st1"/>
			<text x="8.34" y="76.97" class="st2" v:langID="2052"><v:paragraph v:horizAlign="1"/><v:tabList/>c</text>		</g>
		<g id="shape2116-7" v:mID="2116" v:groupContext="shape" transform="translate(136.297,-31.3061)">
			<title>圆角矩形.2116</title>
			<v:userDefs>
				<v:ud v:nameU="CTypeTopLeftSnip" v:prompt="" v:val="VT0(0):5"/>
				<v:ud v:nameU="CTypeTopRightSnip" v:prompt="" v:val="VT0(0):5"/>
				<v:ud v:nameU="CTypeBotLeftSnip" v:prompt="" v:val="VT0(0):5"/>
				<v:ud v:nameU="CTypeBotRightSnip" v:prompt="" v:val="VT0(0):5"/>
				<v:ud v:nameU="CornerLockHoriz" v:prompt="" v:val="VT0(1):5"/>
				<v:ud v:nameU="CornerLockVert" v:prompt="" v:val="VT0(1):5"/>
				<v:ud v:nameU="CornerLockDiag" v:prompt="" v:val="VT0(0):5"/>
				<v:ud v:nameU="TopLeftOffset" v:prompt="" v:val="VT0(0.15748031496063):24"/>
				<v:ud v:nameU="TopRightOffset" v:prompt="" v:val="VT0(0.15748031496063):24"/>
				<v:ud v:nameU="BotLeftOffset" v:prompt="" v:val="VT0(0.15748031496063):24"/>
				<v:ud v:nameU="BotRightOffset" v:prompt="" v:val="VT0(0.15748031496063):24"/>
				<v:ud v:nameU="visVersion" v:prompt="" v:val="VT0(15):26"/>
				<v:ud v:nameU="visMasterStencil" v:prompt="" v:val="VT4(Basic_M.vssx)"/>
				<v:ud v:nameU="TopLeftOffset" v:prompt="" v:val="VT0(0.078740154836949):1"/>
				<v:ud v:nameU="TopRightOffset" v:prompt="" v:val="VT0(0.078740154836949):1"/>
				<v:ud v:nameU="BotLeftOffset" v:prompt="" v:val="VT0(0.078740154836949):1"/>
				<v:ud v:nameU="BotRightOffset" v:prompt="" v:val="VT0(0.078740154836949):1"/>
			</v:userDefs>
			<path d="M5.67 85.31 L17.01 85.31 A5.6692 5.6692 -180 0 0 22.68 79.64 L22.68 68.31 A5.6692 5.6692 -180 0 0 17.01 62.64
						 L5.67 62.64 A5.6692 5.6692 -180 0 0 0 68.31 L0 79.64 A5.6692 5.6692 -180 0 0 5.67 85.31 Z" class="st1"/>
		</g>
		<g id="shape2117-9" v:mID="2117" v:groupContext="shape" transform="translate(90.9423,-31.3061)">
			<title>圆角矩形.2117</title>
			<v:userDefs>
				<v:ud v:nameU="CTypeTopLeftSnip" v:prompt="" v:val="VT0(0):5"/>
				<v:ud v:nameU="CTypeTopRightSnip" v:prompt="" v:val="VT0(0):5"/>
				<v:ud v:nameU="CTypeBotLeftSnip" v:prompt="" v:val="VT0(0):5"/>
				<v:ud v:nameU="CTypeBotRightSnip" v:prompt="" v:val="VT0(0):5"/>
				<v:ud v:nameU="CornerLockHoriz" v:prompt="" v:val="VT0(1):5"/>
				<v:ud v:nameU="CornerLockVert" v:prompt="" v:val="VT0(1):5"/>
				<v:ud v:nameU="CornerLockDiag" v:prompt="" v:val="VT0(0):5"/>
				<v:ud v:nameU="TopLeftOffset" v:prompt="" v:val="VT0(0.15748031496063):24"/>
				<v:ud v:nameU="TopRightOffset" v:prompt="" v:val="VT0(0.15748031496063):24"/>
				<v:ud v:nameU="BotLeftOffset" v:prompt="" v:val="VT0(0.15748031496063):24"/>
				<v:ud v:nameU="BotRightOffset" v:prompt="" v:val="VT0(0.15748031496063):24"/>
				<v:ud v:nameU="visVersion" v:prompt="" v:val="VT0(15):26"/>
				<v:ud v:nameU="visMasterStencil" v:prompt="" v:val="VT4(Basic_M.vssx)"/>
				<v:ud v:nameU="TopLeftOffset" v:prompt="" v:val="VT0(0.078740154836949):1"/>
				<v:ud v:nameU="TopRightOffset" v:prompt="" v:val="VT0(0.078740154836949):1"/>
				<v:ud v:nameU="BotLeftOffset" v:prompt="" v:val="VT0(0.078740154836949):1"/>
				<v:ud v:nameU="BotRightOffset" v:prompt="" v:val="VT0(0.078740154836949):1"/>
			</v:userDefs>
			<path d="M5.67 85.31 L17.01 85.31 A5.6692 5.6692 -180 0 0 22.68 79.64 L22.68 68.31 A5.6692 5.6692 -180 0 0 17.01 62.64
						 L5.67 62.64 A5.6692 5.6692 -180 0 0 0 68.31 L0 79.64 A5.6692 5.6692 -180 0 0 5.67 85.31 Z" class="st3"/>
		</g>
		<g id="shape2118-11" v:mID="2118" v:groupContext="shape" transform="translate(45.588,-31.3061)">
			<title>圆角矩形.2118</title>
			<v:userDefs>
				<v:ud v:nameU="CTypeTopLeftSnip" v:prompt="" v:val="VT0(0):5"/>
				<v:ud v:nameU="CTypeTopRightSnip" v:prompt="" v:val="VT0(0):5"/>
				<v:ud v:nameU="CTypeBotLeftSnip" v:prompt="" v:val="VT0(0):5"/>
				<v:ud v:nameU="CTypeBotRightSnip" v:prompt="" v:val="VT0(0):5"/>
				<v:ud v:nameU="CornerLockHoriz" v:prompt="" v:val="VT0(1):5"/>
				<v:ud v:nameU="CornerLockVert" v:prompt="" v:val="VT0(1):5"/>
				<v:ud v:nameU="CornerLockDiag" v:prompt="" v:val="VT0(0):5"/>
				<v:ud v:nameU="TopLeftOffset" v:prompt="" v:val="VT0(0.15748031496063):24"/>
				<v:ud v:nameU="TopRightOffset" v:prompt="" v:val="VT0(0.15748031496063):24"/>
				<v:ud v:nameU="BotLeftOffset" v:prompt="" v:val="VT0(0.15748031496063):24"/>
				<v:ud v:nameU="BotRightOffset" v:prompt="" v:val="VT0(0.15748031496063):24"/>
				<v:ud v:nameU="visVersion" v:prompt="" v:val="VT0(15):26"/>
				<v:ud v:nameU="visMasterStencil" v:prompt="" v:val="VT4(Basic_M.vssx)"/>
				<v:ud v:nameU="TopLeftOffset" v:prompt="" v:val="VT0(0.078740154836949):1"/>
				<v:ud v:nameU="TopRightOffset" v:prompt="" v:val="VT0(0.078740154836949):1"/>
				<v:ud v:nameU="BotLeftOffset" v:prompt="" v:val="VT0(0.078740154836949):1"/>
				<v:ud v:nameU="BotRightOffset" v:prompt="" v:val="VT0(0.078740154836949):1"/>
			</v:userDefs>
			<path d="M5.67 85.31 L17.01 85.31 A5.6692 5.6692 -180 0 0 22.68 79.64 L22.68 68.31 A5.6692 5.6692 -180 0 0 17.01 62.64
						 L5.67 62.64 A5.6692 5.6692 -180 0 0 0 68.31 L0 79.64 A5.6692 5.6692 -180 0 0 5.67 85.31 Z" class="st3"/>
		</g>
		<g id="shape2119-13" v:mID="2119" v:groupContext="shape" transform="translate(68.2651,-31.3061)">
			<title>圆角矩形.2119</title>
			<desc>b</desc>
			<v:userDefs>
				<v:ud v:nameU="CTypeTopLeftSnip" v:prompt="" v:val="VT0(0):5"/>
				<v:ud v:nameU="CTypeTopRightSnip" v:prompt="" v:val="VT0(0):5"/>
				<v:ud v:nameU="CTypeBotLeftSnip" v:prompt="" v:val="VT0(0):5"/>
				<v:ud v:nameU="CTypeBotRightSnip" v:prompt="" v:val="VT0(0):5"/>
				<v:ud v:nameU="CornerLockHoriz" v:prompt="" v:val="VT0(1):5"/>
				<v:ud v:nameU="CornerLockVert" v:prompt="" v:val="VT0(1):5"/>
				<v:ud v:nameU="CornerLockDiag" v:prompt="" v:val="VT0(0):5"/>
				<v:ud v:nameU="TopLeftOffset" v:prompt="" v:val="VT0(0.15748031496063):24"/>
				<v:ud v:nameU="TopRightOffset" v:prompt="" v:val="VT0(0.15748031496063):24"/>
				<v:ud v:nameU="BotLeftOffset" v:prompt="" v:val="VT0(0.15748031496063):24"/>
				<v:ud v:nameU="BotRightOffset" v:prompt="" v:val="VT0(0.15748031496063):24"/>
				<v:ud v:nameU="visVersion" v:prompt="" v:val="VT0(15):26"/>
				<v:ud v:nameU="visMasterStencil" v:prompt="" v:val="VT4(Basic_M.vssx)"/>
				<v:ud v:nameU="TopLeftOffset" v:prompt="" v:val="VT0(0.078740154836949):1"/>
				<v:ud v:nameU="TopRightOffset" v:prompt="" v:val="VT0(0.078740154836949):1"/>
				<v:ud v:nameU="BotLeftOffset" v:prompt="" v:val="VT0(0.078740154836949):1"/>
				<v:ud v:nameU="BotRightOffset" v:prompt="" v:val="VT0(0.078740154836949):1"/>
			</v:userDefs>
			<v:textBlock v:margins="rect(4,4,4,4)" v:tabSpace="42.5197"/>
			<v:textRect cx="11.3386" cy="73.9744" width="22.68" height="22.6772"/>
			<path d="M5.67 85.31 L17.01 85.31 A5.6692 5.6692 -180 0 0 22.68 79.64 L22.68 68.31 A5.6692 5.6692 -180 0 0 17.01 62.64
						 L5.67 62.64 A5.6692 5.6692 -180 0 0 0 68.31 L0 79.64 A5.6692 5.6692 -180 0 0 5.67 85.31 Z" class="st1"/>
			<text x="8.34" y="76.97" class="st2" v:langID="2052"><v:paragraph v:horizAlign="1"/><v:tabList/>b</text>		</g>
		<g id="shape2120-16" v:mID="2120" v:groupContext="shape" transform="translate(113.511,-0.125)">
			<title>圆角矩形.2120</title>
			<desc>f</desc>
			<v:userDefs>
				<v:ud v:nameU="CTypeTopLeftSnip" v:prompt="" v:val="VT0(0):5"/>
				<v:ud v:nameU="CTypeTopRightSnip" v:prompt="" v:val="VT0(0):5"/>
				<v:ud v:nameU="CTypeBotLeftSnip" v:prompt="" v:val="VT0(0):5"/>
				<v:ud v:nameU="CTypeBotRightSnip" v:prompt="" v:val="VT0(0):5"/>
				<v:ud v:nameU="CornerLockHoriz" v:prompt="" v:val="VT0(1):5"/>
				<v:ud v:nameU="CornerLockVert" v:prompt="" v:val="VT0(1):5"/>
				<v:ud v:nameU="CornerLockDiag" v:prompt="" v:val="VT0(0):5"/>
				<v:ud v:nameU="TopLeftOffset" v:prompt="" v:val="VT0(0.15748031496063):24"/>
				<v:ud v:nameU="TopRightOffset" v:prompt="" v:val="VT0(0.15748031496063):24"/>
				<v:ud v:nameU="BotLeftOffset" v:prompt="" v:val="VT0(0.15748031496063):24"/>
				<v:ud v:nameU="BotRightOffset" v:prompt="" v:val="VT0(0.15748031496063):24"/>
				<v:ud v:nameU="visVersion" v:prompt="" v:val="VT0(15):26"/>
				<v:ud v:nameU="visMasterStencil" v:prompt="" v:val="VT4(Basic_M.vssx)"/>
				<v:ud v:nameU="TopLeftOffset" v:prompt="" v:val="VT0(0.078740154836949):1"/>
				<v:ud v:nameU="TopRightOffset" v:prompt="" v:val="VT0(0.078740154836949):1"/>
				<v:ud v:nameU="BotLeftOffset" v:prompt="" v:val="VT0(0.078740154836949):1"/>
				<v:ud v:nameU="BotRightOffset" v:prompt="" v:val="VT0(0.078740154836949):1"/>
			</v:userDefs>
			<v:textBlock v:margins="rect(4,4,4,4)" v:tabSpace="42.5197"/>
			<v:textRect cx="11.3386" cy="73.9744" width="22.68" height="22.6772"/>
			<path d="M5.67 85.31 L17.01 85.31 A5.6692 5.6692 -180 0 0 22.68 79.64 L22.68 68.31 A5.6692 5.6692 -180 0 0 17.01 62.64
						 L5.67 62.64 A5.6692 5.6692 -180 0 0 0 68.31 L0 79.64 A5.6692 5.6692 -180 0 0 5.67 85.31 Z" class="st1"/>
			<text x="8.34" y="76.97" class="st2" v:langID="2052"><v:paragraph v:horizAlign="1"/><v:tabList/>f</text>		</g>
		<g id="shape2121-19" v:mID="2121" v:groupContext="shape" transform="translate(90.8336,-0.125)">
			<title>圆角矩形.2121</title>
			<v:userDefs>
				<v:ud v:nameU="CTypeTopLeftSnip" v:prompt="" v:val="VT0(0):5"/>
				<v:ud v:nameU="CTypeTopRightSnip" v:prompt="" v:val="VT0(0):5"/>
				<v:ud v:nameU="CTypeBotLeftSnip" v:prompt="" v:val="VT0(0):5"/>
				<v:ud v:nameU="CTypeBotRightSnip" v:prompt="" v:val="VT0(0):5"/>
				<v:ud v:nameU="CornerLockHoriz" v:prompt="" v:val="VT0(1):5"/>
				<v:ud v:nameU="CornerLockVert" v:prompt="" v:val="VT0(1):5"/>
				<v:ud v:nameU="CornerLockDiag" v:prompt="" v:val="VT0(0):5"/>
				<v:ud v:nameU="TopLeftOffset" v:prompt="" v:val="VT0(0.15748031496063):24"/>
				<v:ud v:nameU="TopRightOffset" v:prompt="" v:val="VT0(0.15748031496063):24"/>
				<v:ud v:nameU="BotLeftOffset" v:prompt="" v:val="VT0(0.15748031496063):24"/>
				<v:ud v:nameU="BotRightOffset" v:prompt="" v:val="VT0(0.15748031496063):24"/>
				<v:ud v:nameU="visVersion" v:prompt="" v:val="VT0(15):26"/>
				<v:ud v:nameU="visMasterStencil" v:prompt="" v:val="VT4(Basic_M.vssx)"/>
				<v:ud v:nameU="TopLeftOffset" v:prompt="" v:val="VT0(0.078740154836949):1"/>
				<v:ud v:nameU="TopRightOffset" v:prompt="" v:val="VT0(0.078740154836949):1"/>
				<v:ud v:nameU="BotLeftOffset" v:prompt="" v:val="VT0(0.078740154836949):1"/>
				<v:ud v:nameU="BotRightOffset" v:prompt="" v:val="VT0(0.078740154836949):1"/>
			</v:userDefs>
			<path d="M5.67 85.31 L17.01 85.31 A5.6692 5.6692 -180 0 0 22.68 79.64 L22.68 68.31 A5.6692 5.6692 -180 0 0 17.01 62.64
						 L5.67 62.64 A5.6692 5.6692 -180 0 0 0 68.31 L0 79.64 A5.6692 5.6692 -180 0 0 5.67 85.31 Z" class="st1"/>
		</g>
		<g id="shape2122-21" v:mID="2122" v:groupContext="shape" transform="translate(136.188,-0.125)">
			<title>圆角矩形.2122</title>
			<v:userDefs>
				<v:ud v:nameU="CTypeTopLeftSnip" v:prompt="" v:val="VT0(0):5"/>
				<v:ud v:nameU="CTypeTopRightSnip" v:prompt="" v:val="VT0(0):5"/>
				<v:ud v:nameU="CTypeBotLeftSnip" v:prompt="" v:val="VT0(0):5"/>
				<v:ud v:nameU="CTypeBotRightSnip" v:prompt="" v:val="VT0(0):5"/>
				<v:ud v:nameU="CornerLockHoriz" v:prompt="" v:val="VT0(1):5"/>
				<v:ud v:nameU="CornerLockVert" v:prompt="" v:val="VT0(1):5"/>
				<v:ud v:nameU="CornerLockDiag" v:prompt="" v:val="VT0(0):5"/>
				<v:ud v:nameU="TopLeftOffset" v:prompt="" v:val="VT0(0.15748031496063):24"/>
				<v:ud v:nameU="TopRightOffset" v:prompt="" v:val="VT0(0.15748031496063):24"/>
				<v:ud v:nameU="BotLeftOffset" v:prompt="" v:val="VT0(0.15748031496063):24"/>
				<v:ud v:nameU="BotRightOffset" v:prompt="" v:val="VT0(0.15748031496063):24"/>
				<v:ud v:nameU="visVersion" v:prompt="" v:val="VT0(15):26"/>
				<v:ud v:nameU="visMasterStencil" v:prompt="" v:val="VT4(Basic_M.vssx)"/>
				<v:ud v:nameU="TopLeftOffset" v:prompt="" v:val="VT0(0.078740154836949):1"/>
				<v:ud v:nameU="TopRightOffset" v:prompt="" v:val="VT0(0.078740154836949):1"/>
				<v:ud v:nameU="BotLeftOffset" v:prompt="" v:val="VT0(0.078740154836949):1"/>
				<v:ud v:nameU="BotRightOffset" v:prompt="" v:val="VT0(0.078740154836949):1"/>
			</v:userDefs>
			<path d="M5.67 85.31 L17.01 85.31 A5.6692 5.6692 -180 0 0 22.68 79.64 L22.68 68.31 A5.6692 5.6692 -180 0 0 17.01 62.64
						 L5.67 62.64 A5.6692 5.6692 -180 0 0 0 68.31 L0 79.64 A5.6692 5.6692 -180 0 0 5.67 85.31 Z" class="st1"/>
		</g>
		<g id="shape2123-23" v:mID="2123" v:groupContext="shape" transform="translate(45.4792,-0.125)">
			<title>圆角矩形.2123</title>
			<v:userDefs>
				<v:ud v:nameU="CTypeTopLeftSnip" v:prompt="" v:val="VT0(0):5"/>
				<v:ud v:nameU="CTypeTopRightSnip" v:prompt="" v:val="VT0(0):5"/>
				<v:ud v:nameU="CTypeBotLeftSnip" v:prompt="" v:val="VT0(0):5"/>
				<v:ud v:nameU="CTypeBotRightSnip" v:prompt="" v:val="VT0(0):5"/>
				<v:ud v:nameU="CornerLockHoriz" v:prompt="" v:val="VT0(1):5"/>
				<v:ud v:nameU="CornerLockVert" v:prompt="" v:val="VT0(1):5"/>
				<v:ud v:nameU="CornerLockDiag" v:prompt="" v:val="VT0(0):5"/>
				<v:ud v:nameU="TopLeftOffset" v:prompt="" v:val="VT0(0.15748031496063):24"/>
				<v:ud v:nameU="TopRightOffset" v:prompt="" v:val="VT0(0.15748031496063):24"/>
				<v:ud v:nameU="BotLeftOffset" v:prompt="" v:val="VT0(0.15748031496063):24"/>
				<v:ud v:nameU="BotRightOffset" v:prompt="" v:val="VT0(0.15748031496063):24"/>
				<v:ud v:nameU="visVersion" v:prompt="" v:val="VT0(15):26"/>
				<v:ud v:nameU="visMasterStencil" v:prompt="" v:val="VT4(Basic_M.vssx)"/>
				<v:ud v:nameU="TopLeftOffset" v:prompt="" v:val="VT0(0.078740154836949):1"/>
				<v:ud v:nameU="TopRightOffset" v:prompt="" v:val="VT0(0.078740154836949):1"/>
				<v:ud v:nameU="BotLeftOffset" v:prompt="" v:val="VT0(0.078740154836949):1"/>
				<v:ud v:nameU="BotRightOffset" v:prompt="" v:val="VT0(0.078740154836949):1"/>
			</v:userDefs>
			<path d="M5.67 85.31 L17.01 85.31 A5.6692 5.6692 -180 0 0 22.68 79.64 L22.68 68.31 A5.6692 5.6692 -180 0 0 17.01 62.64
						 L5.67 62.64 A5.6692 5.6692 -180 0 0 0 68.31 L0 79.64 A5.6692 5.6692 -180 0 0 5.67 85.31 Z" class="st1"/>
		</g>
		<g id="shape2124-25" v:mID="2124" v:groupContext="shape" transform="translate(22.8021,-0.125)">
			<title>圆角矩形.2124</title>
			<desc>d</desc>
			<v:userDefs>
				<v:ud v:nameU="CTypeTopLeftSnip" v:prompt="" v:val="VT0(0):5"/>
				<v:ud v:nameU="CTypeTopRightSnip" v:prompt="" v:val="VT0(0):5"/>
				<v:ud v:nameU="CTypeBotLeftSnip" v:prompt="" v:val="VT0(0):5"/>
				<v:ud v:nameU="CTypeBotRightSnip" v:prompt="" v:val="VT0(0):5"/>
				<v:ud v:nameU="CornerLockHoriz" v:prompt="" v:val="VT0(1):5"/>
				<v:ud v:nameU="CornerLockVert" v:prompt="" v:val="VT0(1):5"/>
				<v:ud v:nameU="CornerLockDiag" v:prompt="" v:val="VT0(0):5"/>
				<v:ud v:nameU="TopLeftOffset" v:prompt="" v:val="VT0(0.15748031496063):24"/>
				<v:ud v:nameU="TopRightOffset" v:prompt="" v:val="VT0(0.15748031496063):24"/>
				<v:ud v:nameU="BotLeftOffset" v:prompt="" v:val="VT0(0.15748031496063):24"/>
				<v:ud v:nameU="BotRightOffset" v:prompt="" v:val="VT0(0.15748031496063):24"/>
				<v:ud v:nameU="visVersion" v:prompt="" v:val="VT0(15):26"/>
				<v:ud v:nameU="visMasterStencil" v:prompt="" v:val="VT4(Basic_M.vssx)"/>
				<v:ud v:nameU="TopLeftOffset" v:prompt="" v:val="VT0(0.078740154836949):1"/>
				<v:ud v:nameU="TopRightOffset" v:prompt="" v:val="VT0(0.078740154836949):1"/>
				<v:ud v:nameU="BotLeftOffset" v:prompt="" v:val="VT0(0.078740154836949):1"/>
				<v:ud v:nameU="BotRightOffset" v:prompt="" v:val="VT0(0.078740154836949):1"/>
			</v:userDefs>
			<v:textBlock v:margins="rect(4,4,4,4)" v:tabSpace="42.5197"/>
			<v:textRect cx="11.3386" cy="73.9744" width="22.68" height="22.6772"/>
			<path d="M5.67 85.31 L17.01 85.31 A5.6692 5.6692 -180 0 0 22.68 79.64 L22.68 68.31 A5.6692 5.6692 -180 0 0 17.01 62.64
						 L5.67 62.64 A5.6692 5.6692 -180 0 0 0 68.31 L0 79.64 A5.6692 5.6692 -180 0 0 5.67 85.31 Z" class="st1"/>
			<text x="8.34" y="76.97" class="st2" v:langID="2052"><v:paragraph v:horizAlign="1"/><v:tabList/>d</text>		</g>
		<g id="shape2125-28" v:mID="2125" v:groupContext="shape" transform="translate(204.411,-0.125)">
			<title>圆角矩形.2125</title>
			<desc>g</desc>
			<v:userDefs>
				<v:ud v:nameU="CTypeTopLeftSnip" v:prompt="" v:val="VT0(0):5"/>
				<v:ud v:nameU="CTypeTopRightSnip" v:prompt="" v:val="VT0(0):5"/>
				<v:ud v:nameU="CTypeBotLeftSnip" v:prompt="" v:val="VT0(0):5"/>
				<v:ud v:nameU="CTypeBotRightSnip" v:prompt="" v:val="VT0(0):5"/>
				<v:ud v:nameU="CornerLockHoriz" v:prompt="" v:val="VT0(1):5"/>
				<v:ud v:nameU="CornerLockVert" v:prompt="" v:val="VT0(1):5"/>
				<v:ud v:nameU="CornerLockDiag" v:prompt="" v:val="VT0(0):5"/>
				<v:ud v:nameU="TopLeftOffset" v:prompt="" v:val="VT0(0.15748031496063):24"/>
				<v:ud v:nameU="TopRightOffset" v:prompt="" v:val="VT0(0.15748031496063):24"/>
				<v:ud v:nameU="BotLeftOffset" v:prompt="" v:val="VT0(0.15748031496063):24"/>
				<v:ud v:nameU="BotRightOffset" v:prompt="" v:val="VT0(0.15748031496063):24"/>
				<v:ud v:nameU="visVersion" v:prompt="" v:val="VT0(15):26"/>
				<v:ud v:nameU="visMasterStencil" v:prompt="" v:val="VT4(Basic_M.vssx)"/>
				<v:ud v:nameU="TopLeftOffset" v:prompt="" v:val="VT0(0.078740154836949):1"/>
				<v:ud v:nameU="TopRightOffset" v:prompt="" v:val="VT0(0.078740154836949):1"/>
				<v:ud v:nameU="BotLeftOffset" v:prompt="" v:val="VT0(0.078740154836949):1"/>
				<v:ud v:nameU="BotRightOffset" v:prompt="" v:val="VT0(0.078740154836949):1"/>
			</v:userDefs>
			<v:textBlock v:margins="rect(4,4,4,4)" v:tabSpace="42.5197"/>
			<v:textRect cx="11.3386" cy="73.9744" width="22.68" height="22.6772"/>
			<path d="M5.67 85.31 L17.01 85.31 A5.6692 5.6692 -180 0 0 22.68 79.64 L22.68 68.31 A5.6692 5.6692 -180 0 0 17.01 62.64
						 L5.67 62.64 A5.6692 5.6692 -180 0 0 0 68.31 L0 79.64 A5.6692 5.6692 -180 0 0 5.67 85.31 Z" class="st1"/>
			<text x="8.34" y="76.97" class="st2" v:langID="2052"><v:paragraph v:horizAlign="1"/><v:tabList/>g</text>		</g>
		<g id="shape2126-31" v:mID="2126" v:groupContext="shape" transform="translate(181.651,-0.125)">
			<title>圆角矩形.2126</title>
			<v:userDefs>
				<v:ud v:nameU="CTypeTopLeftSnip" v:prompt="" v:val="VT0(0):5"/>
				<v:ud v:nameU="CTypeTopRightSnip" v:prompt="" v:val="VT0(0):5"/>
				<v:ud v:nameU="CTypeBotLeftSnip" v:prompt="" v:val="VT0(0):5"/>
				<v:ud v:nameU="CTypeBotRightSnip" v:prompt="" v:val="VT0(0):5"/>
				<v:ud v:nameU="CornerLockHoriz" v:prompt="" v:val="VT0(1):5"/>
				<v:ud v:nameU="CornerLockVert" v:prompt="" v:val="VT0(1):5"/>
				<v:ud v:nameU="CornerLockDiag" v:prompt="" v:val="VT0(0):5"/>
				<v:ud v:nameU="TopLeftOffset" v:prompt="" v:val="VT0(0.15748031496063):24"/>
				<v:ud v:nameU="TopRightOffset" v:prompt="" v:val="VT0(0.15748031496063):24"/>
				<v:ud v:nameU="BotLeftOffset" v:prompt="" v:val="VT0(0.15748031496063):24"/>
				<v:ud v:nameU="BotRightOffset" v:prompt="" v:val="VT0(0.15748031496063):24"/>
				<v:ud v:nameU="visVersion" v:prompt="" v:val="VT0(15):26"/>
				<v:ud v:nameU="visMasterStencil" v:prompt="" v:val="VT4(Basic_M.vssx)"/>
				<v:ud v:nameU="TopLeftOffset" v:prompt="" v:val="VT0(0.078740154836949):1"/>
				<v:ud v:nameU="TopRightOffset" v:prompt="" v:val="VT0(0.078740154836949):1"/>
				<v:ud v:nameU="BotLeftOffset" v:prompt="" v:val="VT0(0.078740154836949):1"/>
				<v:ud v:nameU="BotRightOffset" v:prompt="" v:val="VT0(0.078740154836949):1"/>
			</v:userDefs>
			<path d="M5.67 85.31 L17.01 85.31 A5.6692 5.6692 -180 0 0 22.68 79.64 L22.68 68.31 A5.6692 5.6692 -180 0 0 17.01 62.64
						 L5.67 62.64 A5.6692 5.6692 -180 0 0 0 68.31 L0 79.64 A5.6692 5.6692 -180 0 0 5.67 85.31 Z" class="st1"/>
		</g>
		<g id="shape2127-33" v:mID="2127" v:groupContext="shape" transform="translate(227.172,-0.125)">
			<title>圆角矩形.2127</title>
			<desc>^</desc>
			<v:userDefs>
				<v:ud v:nameU="CTypeTopLeftSnip" v:prompt="" v:val="VT0(0):5"/>
				<v:ud v:nameU="CTypeTopRightSnip" v:prompt="" v:val="VT0(0):5"/>
				<v:ud v:nameU="CTypeBotLeftSnip" v:prompt="" v:val="VT0(0):5"/>
				<v:ud v:nameU="CTypeBotRightSnip" v:prompt="" v:val="VT0(0):5"/>
				<v:ud v:nameU="CornerLockHoriz" v:prompt="" v:val="VT0(1):5"/>
				<v:ud v:nameU="CornerLockVert" v:prompt="" v:val="VT0(1):5"/>
				<v:ud v:nameU="CornerLockDiag" v:prompt="" v:val="VT0(0):5"/>
				<v:ud v:nameU="TopLeftOffset" v:prompt="" v:val="VT0(0.15748031496063):24"/>
				<v:ud v:nameU="TopRightOffset" v:prompt="" v:val="VT0(0.15748031496063):24"/>
				<v:ud v:nameU="BotLeftOffset" v:prompt="" v:val="VT0(0.15748031496063):24"/>
				<v:ud v:nameU="BotRightOffset" v:prompt="" v:val="VT0(0.15748031496063):24"/>
				<v:ud v:nameU="visVersion" v:prompt="" v:val="VT0(15):26"/>
				<v:ud v:nameU="visMasterStencil" v:prompt="" v:val="VT4(Basic_M.vssx)"/>
				<v:ud v:nameU="TopLeftOffset" v:prompt="" v:val="VT0(0.078740154836949):1"/>
				<v:ud v:nameU="TopRightOffset" v:prompt="" v:val="VT0(0.078740154836949):1"/>
				<v:ud v:nameU="BotLeftOffset" v:prompt="" v:val="VT0(0.078740154836949):1"/>
				<v:ud v:nameU="BotRightOffset" v:prompt="" v:val="VT0(0.078740154836949):1"/>
			</v:userDefs>
			<v:textBlock v:margins="rect(4,4,4,4)" v:tabSpace="42.5197"/>
			<v:textRect cx="11.3386" cy="73.9744" width="22.68" height="22.6772"/>
			<path d="M5.67 85.31 L17.01 85.31 A5.6692 5.6692 -180 0 0 22.68 79.64 L22.68 68.31 A5.6692 5.6692 -180 0 0 17.01 62.64
						 L5.67 62.64 A5.6692 5.6692 -180 0 0 0 68.31 L0 79.64 A5.6692 5.6692 -180 0 0 5.67 85.31 Z" class="st1"/>
			<text x="8.34" y="76.97" class="st2" v:langID="2052"><v:paragraph v:horizAlign="1"/><v:tabList/>^</text>		</g>
		<g id="shape2128-36" v:mID="2128" v:groupContext="shape" v:layerMember="0" transform="translate(46.9509,-42.6447)">
			<title>动态连接线.2128</title>
			<path d="M-1.36 85.31 C-4.22 85.31 -8.22 85.31 -10.35 88.53 C-12.81 92.23 -12.81 100.19 -12.81 105.16" class="st4"/>
		</g>
		<g id="shape2129-39" v:mID="2129" v:groupContext="shape" v:layerMember="0" transform="translate(112.148,-42.6447)">
			<title>动态连接线.2129</title>
			<path d="M1.47 85.31 C4.28 85.31 8.19 85.31 10.28 88.51 C12.7 92.21 12.7 100.19 12.7 105.16" class="st4"/>
		</g>
		<g id="shape2130-42" v:mID="2130" v:groupContext="shape" transform="translate(90.9423,-62.5108)">
			<title>圆角矩形.2130</title>
			<v:userDefs>
				<v:ud v:nameU="CTypeTopLeftSnip" v:prompt="" v:val="VT0(0):5"/>
				<v:ud v:nameU="CTypeTopRightSnip" v:prompt="" v:val="VT0(0):5"/>
				<v:ud v:nameU="CTypeBotLeftSnip" v:prompt="" v:val="VT0(0):5"/>
				<v:ud v:nameU="CTypeBotRightSnip" v:prompt="" v:val="VT0(0):5"/>
				<v:ud v:nameU="CornerLockHoriz" v:prompt="" v:val="VT0(1):5"/>
				<v:ud v:nameU="CornerLockVert" v:prompt="" v:val="VT0(1):5"/>
				<v:ud v:nameU="CornerLockDiag" v:prompt="" v:val="VT0(0):5"/>
				<v:ud v:nameU="TopLeftOffset" v:prompt="" v:val="VT0(0.15748031496063):24"/>
				<v:ud v:nameU="TopRightOffset" v:prompt="" v:val="VT0(0.15748031496063):24"/>
				<v:ud v:nameU="BotLeftOffset" v:prompt="" v:val="VT0(0.15748031496063):24"/>
				<v:ud v:nameU="BotRightOffset" v:prompt="" v:val="VT0(0.15748031496063):24"/>
				<v:ud v:nameU="visVersion" v:prompt="" v:val="VT0(15):26"/>
				<v:ud v:nameU="visMasterStencil" v:prompt="" v:val="VT4(Basic_M.vssx)"/>
				<v:ud v:nameU="TopLeftOffset" v:prompt="" v:val="VT0(0.078740154836949):1"/>
				<v:ud v:nameU="TopRightOffset" v:prompt="" v:val="VT0(0.078740154836949):1"/>
				<v:ud v:nameU="BotLeftOffset" v:prompt="" v:val="VT0(0.078740154836949):1"/>
				<v:ud v:nameU="BotRightOffset" v:prompt="" v:val="VT0(0.078740154836949):1"/>
			</v:userDefs>
			<path d="M5.67 85.31 L17.01 85.31 A5.6692 5.6692 -180 0 0 22.68 79.64 L22.68 68.31 A5.6692 5.6692 -180 0 0 17.01 62.64
						 L5.67 62.64 A5.6692 5.6692 -180 0 0 0 68.31 L0 79.64 A5.6692 5.6692 -180 0 0 5.67 85.31 Z" class="st3"/>
		</g>
		<g id="shape2131-44" v:mID="2131" v:groupContext="shape" transform="translate(136.297,-62.5108)">
			<title>圆角矩形.2131</title>
			<v:userDefs>
				<v:ud v:nameU="CTypeTopLeftSnip" v:prompt="" v:val="VT0(0):5"/>
				<v:ud v:nameU="CTypeTopRightSnip" v:prompt="" v:val="VT0(0):5"/>
				<v:ud v:nameU="CTypeBotLeftSnip" v:prompt="" v:val="VT0(0):5"/>
				<v:ud v:nameU="CTypeBotRightSnip" v:prompt="" v:val="VT0(0):5"/>
				<v:ud v:nameU="CornerLockHoriz" v:prompt="" v:val="VT0(1):5"/>
				<v:ud v:nameU="CornerLockVert" v:prompt="" v:val="VT0(1):5"/>
				<v:ud v:nameU="CornerLockDiag" v:prompt="" v:val="VT0(0):5"/>
				<v:ud v:nameU="TopLeftOffset" v:prompt="" v:val="VT0(0.15748031496063):24"/>
				<v:ud v:nameU="TopRightOffset" v:prompt="" v:val="VT0(0.15748031496063):24"/>
				<v:ud v:nameU="BotLeftOffset" v:prompt="" v:val="VT0(0.15748031496063):24"/>
				<v:ud v:nameU="BotRightOffset" v:prompt="" v:val="VT0(0.15748031496063):24"/>
				<v:ud v:nameU="visVersion" v:prompt="" v:val="VT0(15):26"/>
				<v:ud v:nameU="visMasterStencil" v:prompt="" v:val="VT4(Basic_M.vssx)"/>
				<v:ud v:nameU="TopLeftOffset" v:prompt="" v:val="VT0(0.078740154836949):1"/>
				<v:ud v:nameU="TopRightOffset" v:prompt="" v:val="VT0(0.078740154836949):1"/>
				<v:ud v:nameU="BotLeftOffset" v:prompt="" v:val="VT0(0.078740154836949):1"/>
				<v:ud v:nameU="BotRightOffset" v:prompt="" v:val="VT0(0.078740154836949):1"/>
			</v:userDefs>
			<path d="M5.67 85.31 L17.01 85.31 A5.6692 5.6692 -180 0 0 22.68 79.64 L22.68 68.31 A5.6692 5.6692 -180 0 0 17.01 62.64
						 L5.67 62.64 A5.6692 5.6692 -180 0 0 0 68.31 L0 79.64 A5.6692 5.6692 -180 0 0 5.67 85.31 Z" class="st3"/>
		</g>
		<g id="shape2132-46" v:mID="2132" v:groupContext="shape" transform="translate(181.651,-31.3061)">
			<title>圆角矩形.2132</title>
			<v:userDefs>
				<v:ud v:nameU="CTypeTopLeftSnip" v:prompt="" v:val="VT0(0):5"/>
				<v:ud v:nameU="CTypeTopRightSnip" v:prompt="" v:val="VT0(0):5"/>
				<v:ud v:nameU="CTypeBotLeftSnip" v:prompt="" v:val="VT0(0):5"/>
				<v:ud v:nameU="CTypeBotRightSnip" v:prompt="" v:val="VT0(0):5"/>
				<v:ud v:nameU="CornerLockHoriz" v:prompt="" v:val="VT0(1):5"/>
				<v:ud v:nameU="CornerLockVert" v:prompt="" v:val="VT0(1):5"/>
				<v:ud v:nameU="CornerLockDiag" v:prompt="" v:val="VT0(0):5"/>
				<v:ud v:nameU="TopLeftOffset" v:prompt="" v:val="VT0(0.15748031496063):24"/>
				<v:ud v:nameU="TopRightOffset" v:prompt="" v:val="VT0(0.15748031496063):24"/>
				<v:ud v:nameU="BotLeftOffset" v:prompt="" v:val="VT0(0.15748031496063):24"/>
				<v:ud v:nameU="BotRightOffset" v:prompt="" v:val="VT0(0.15748031496063):24"/>
				<v:ud v:nameU="visVersion" v:prompt="" v:val="VT0(15):26"/>
				<v:ud v:nameU="visMasterStencil" v:prompt="" v:val="VT4(Basic_M.vssx)"/>
				<v:ud v:nameU="TopLeftOffset" v:prompt="" v:val="VT0(0.078740154836949):1"/>
				<v:ud v:nameU="TopRightOffset" v:prompt="" v:val="VT0(0.078740154836949):1"/>
				<v:ud v:nameU="BotLeftOffset" v:prompt="" v:val="VT0(0.078740154836949):1"/>
				<v:ud v:nameU="BotRightOffset" v:prompt="" v:val="VT0(0.078740154836949):1"/>
			</v:userDefs>
			<path d="M5.67 85.31 L17.01 85.31 A5.6692 5.6692 -180 0 0 22.68 79.64 L22.68 68.31 A5.6692 5.6692 -180 0 0 17.01 62.64
						 L5.67 62.64 A5.6692 5.6692 -180 0 0 0 68.31 L0 79.64 A5.6692 5.6692 -180 0 0 5.67 85.31 Z" class="st3"/>
		</g>
		<g id="shape2133-48" v:mID="2133" v:groupContext="shape" v:layerMember="0" transform="translate(92.3596,-73.8494)">
			<title>动态连接线.2133</title>
			<path d="M-1.42 85.31 C-4.25 85.31 -8.2 85.31 -10.31 88.52 C-12.76 92.23 -12.76 100.21 -12.76 105.18" class="st4"/>
		</g>
		<g id="shape2134-51" v:mID="2134" v:groupContext="shape" v:layerMember="0" transform="translate(157.556,-73.8494)">
			<title>动态连接线.2134</title>
			<path d="M1.42 85.31 C4.25 85.31 8.2 85.31 10.31 88.52 C12.76 92.23 12.76 100.21 12.76 105.18" class="st4"/>
		</g>
		<g id="shape2135-54" v:mID="2135" v:groupContext="shape" v:layerMember="0" transform="translate(202.952,-42.6447)">
			<title>动态连接线.2135</title>
			<path d="M1.38 85.31 C4.23 85.31 8.21 85.31 10.34 88.53 C12.8 92.23 12.8 100.19 12.8 105.16" class="st4"/>
		</g>
		<g id="shape2136-57" v:mID="2136" v:groupContext="shape" v:layerMember="0" transform="translate(56.8178,-11.4636)">
			<title>动态连接线.2136</title>
			<path d="M0 85.31 C0 85.31 22.81 84.72 22.79 65.47" class="st5"/>
		</g>
		<g id="shape2137-60" v:mID="2137" v:groupContext="shape" v:layerMember="0" transform="translate(79.6037,-31.3061)">
			<title>动态连接线.2137</title>
			<path d="M0 85.31 C0.03 105.98 22.57 105.16 22.57 105.16" class="st5"/>
		</g>
		<g id="shape2138-63" v:mID="2138" v:groupContext="shape" v:layerMember="0" transform="translate(147.635,-42.6447)">
			<title>动态连接线.2138</title>
			<path d="M0 85.31 C-0 85.31 -22.65 85.28 -22.68 65.45" class="st5"/>
		</g>
		<g id="shape2139-66" v:mID="2139" v:groupContext="shape" v:layerMember="0" transform="translate(192.99,-11.4636)">
			<title>动态连接线.2139</title>
			<path d="M0 85.31 C0 85.31 -22.65 87.83 -22.68 65.47" class="st5"/>
		</g>
		<g id="shape2140-69" v:mID="2140" v:groupContext="shape" v:layerMember="0" transform="translate(147.526,-11.4636)">
			<title>动态连接线.2140</title>
			<path d="M0 85.31 C0 71.32 -3.49 67.88 -7.58 67.05 C-14.27 65.7 -22.57 71.32 -22.57 34.27" class="st5"/>
		</g>
		<g id="shape2147-72" v:mID="2147" v:groupContext="shape" transform="translate(0.124907,-0.125)">
			<title>圆角矩形.2147</title>
			<desc>^</desc>
			<v:userDefs>
				<v:ud v:nameU="CTypeTopLeftSnip" v:prompt="" v:val="VT0(0):5"/>
				<v:ud v:nameU="CTypeTopRightSnip" v:prompt="" v:val="VT0(0):5"/>
				<v:ud v:nameU="CTypeBotLeftSnip" v:prompt="" v:val="VT0(0):5"/>
				<v:ud v:nameU="CTypeBotRightSnip" v:prompt="" v:val="VT0(0):5"/>
				<v:ud v:nameU="CornerLockHoriz" v:prompt="" v:val="VT0(1):5"/>
				<v:ud v:nameU="CornerLockVert" v:prompt="" v:val="VT0(1):5"/>
				<v:ud v:nameU="CornerLockDiag" v:prompt="" v:val="VT0(0):5"/>
				<v:ud v:nameU="TopLeftOffset" v:prompt="" v:val="VT0(0.15748031496063):24"/>
				<v:ud v:nameU="TopRightOffset" v:prompt="" v:val="VT0(0.15748031496063):24"/>
				<v:ud v:nameU="BotLeftOffset" v:prompt="" v:val="VT0(0.15748031496063):24"/>
				<v:ud v:nameU="BotRightOffset" v:prompt="" v:val="VT0(0.15748031496063):24"/>
				<v:ud v:nameU="visVersion" v:prompt="" v:val="VT0(15):26"/>
				<v:ud v:nameU="visMasterStencil" v:prompt="" v:val="VT4(Basic_M.vssx)"/>
				<v:ud v:nameU="TopLeftOffset" v:prompt="" v:val="VT0(0.078740154836949):1"/>
				<v:ud v:nameU="TopRightOffset" v:prompt="" v:val="VT0(0.078740154836949):1"/>
				<v:ud v:nameU="BotLeftOffset" v:prompt="" v:val="VT0(0.078740154836949):1"/>
				<v:ud v:nameU="BotRightOffset" v:prompt="" v:val="VT0(0.078740154836949):1"/>
			</v:userDefs>
			<v:textBlock v:margins="rect(4,4,4,4)" v:tabSpace="42.5197"/>
			<v:textRect cx="11.3386" cy="73.9744" width="22.68" height="22.6772"/>
			<path d="M5.67 85.31 L17.01 85.31 A5.6692 5.6692 -180 0 0 22.68 79.64 L22.68 68.31 A5.6692 5.6692 -180 0 0 17.01 62.64
						 L5.67 62.64 A5.6692 5.6692 -180 0 0 0 68.31 L0 79.64 A5.6692 5.6692 -180 0 0 5.67 85.31 Z" class="st1"/>
			<text x="8.34" y="76.97" class="st2" v:langID="2052"><v:paragraph v:horizAlign="1"/><v:tabList/>^</text>		</g>
		<g id="shape2150-75" v:mID="2150" v:groupContext="shape" transform="translate(146.818,-10.7549)">
			<title>椭圆形.2150</title>
			<v:userDefs>
				<v:ud v:nameU="visVersion" v:val="VT0(15):26"/>
				<v:ud v:nameU="visMasterStencil" v:prompt="" v:val="VT4(Basic_M.vssx)"/>
			</v:userDefs>
			<path d="M0 84.6 a0.708661 0.708661 0 0 1 1.41732 0 a0.708661 0.708661 0 0 1 -1.41732 0 Z" class="st6"/>
		</g>
		<g id="shape2151-77" v:mID="2151" v:groupContext="shape" transform="translate(192.281,-10.7549)">
			<title>椭圆形.2151</title>
			<v:userDefs>
				<v:ud v:nameU="visVersion" v:val="VT0(15):26"/>
				<v:ud v:nameU="visMasterStencil" v:prompt="" v:val="VT4(Basic_M.vssx)"/>
			</v:userDefs>
			<path d="M0 84.6 a0.708661 0.708661 0 0 1 1.41732 0 a0.708661 0.708661 0 0 1 -1.41732 0 Z" class="st6"/>
		</g>
		<g id="shape2154-79" v:mID="2154" v:groupContext="shape" transform="translate(146.927,-41.936)">
			<title>椭圆形.2154</title>
			<v:userDefs>
				<v:ud v:nameU="visVersion" v:val="VT0(15):26"/>
				<v:ud v:nameU="visMasterStencil" v:prompt="" v:val="VT4(Basic_M.vssx)"/>
			</v:userDefs>
			<path d="M0 84.6 a0.708661 0.708661 0 0 1 1.41732 0 a0.708661 0.708661 0 0 1 -1.41732 0 Z" class="st6"/>
		</g>
		<g id="shape2155-81" v:mID="2155" v:groupContext="shape" transform="translate(101.463,-10.7549)">
			<title>椭圆形.2155</title>
			<v:userDefs>
				<v:ud v:nameU="visVersion" v:val="VT0(15):26"/>
				<v:ud v:nameU="visMasterStencil" v:prompt="" v:val="VT4(Basic_M.vssx)"/>
			</v:userDefs>
			<path d="M0 84.6 a0.708661 0.708661 0 0 1 1.41732 0 a0.708661 0.708661 0 0 1 -1.41732 0 Z" class="st6"/>
		</g>
		<g id="shape2156-83" v:mID="2156" v:groupContext="shape" transform="translate(56.1092,-10.7549)">
			<title>椭圆形.2156</title>
			<v:userDefs>
				<v:ud v:nameU="visVersion" v:val="VT0(15):26"/>
				<v:ud v:nameU="visMasterStencil" v:prompt="" v:val="VT4(Basic_M.vssx)"/>
			</v:userDefs>
			<path d="M0 84.6 a0.708661 0.708661 0 0 1 1.41732 0 a0.708661 0.708661 0 0 1 -1.41732 0 Z" class="st6"/>
		</g>
	</g>
</svg>
