<?xml version="1.0" encoding="UTF-8" standalone="no"?>
<!DOCTYPE svg PUBLIC "-//W3C//DTD SVG 1.1//EN" "http://www.w3.org/Graphics/SVG/1.1/DTD/svg11.dtd">
<!-- 由 Microsoft Visio, SVG Export 生成 clue_tree_2.svg 页-1 -->
<svg xmlns="http://www.w3.org/2000/svg" xmlns:xlink="http://www.w3.org/1999/xlink" xmlns:ev="http://www.w3.org/2001/xml-events"
		xmlns:v="http://schemas.microsoft.com/visio/2003/SVGExtensions/" width="3.63016in" height="2.11159in"
		viewBox="0 0 261.372 152.034" xml:space="preserve" color-interpolation-filters="sRGB" class="st11">
	<v:documentProperties v:langID="2052" v:metric="true" v:viewMarkup="false"/>

	<style type="text/css">
	<![CDATA[
		.st1 {fill:#ffffff;stroke:#000000;stroke-linecap:round;stroke-linejoin:round;stroke-width:0.25}
		.st2 {fill:#000000;font-family:Courier New;font-size:0.833336em}
		.st3 {fill:#bfbfbf;stroke:#000000;stroke-linecap:round;stroke-linejoin:round;stroke-width:0.25}
		.st4 {stroke:#000000;stroke-linecap:round;stroke-linejoin:round;stroke-width:0.75}
		.st5 {stroke:#000000;stroke-dasharray:0.75,1.5;stroke-linecap:round;stroke-linejoin:round;stroke-width:0.75}
		.st6 {fill:none;stroke:#000000;stroke-linecap:round;stroke-linejoin:round;stroke-width:0.25}
		.st7 {fill:#000000;stroke:#000000;stroke-linecap:round;stroke-linejoin:round;stroke-width:0.24}
		.st8 {marker-start:url(#mrkr5-113);stroke:#000000;stroke-linecap:round;stroke-linejoin:round;stroke-width:0.75}
		.st9 {fill:#000000;fill-opacity:1;stroke:#000000;stroke-opacity:1;stroke-width:0.22935779816514}
		.st10 {fill:none;stroke:none;stroke-linecap:round;stroke-linejoin:round;stroke-width:0.75}
		.st11 {fill:none;fill-rule:evenodd;font-size:12px;overflow:visible;stroke-linecap:square;stroke-miterlimit:3}
	]]>
	</style>

	<defs id="Markers">
		<g id="lend5">
			<path d="M 2 1 L 0 0 L 1.98117 -0.993387 C 1.67173 -0.364515 1.67301 0.372641 1.98465 1.00043 " style="stroke:none"/>
		</g>
		<marker id="mrkr5-113" class="st9" v:arrowType="5" v:arrowSize="2" v:setback="7.15" refX="7.15" orient="auto"
				markerUnits="strokeWidth" overflow="visible">
			<use xlink:href="#lend5" transform="scale(4.36) "/>
		</marker>
	</defs>
	<g v:mID="0" v:index="1" v:groupContext="foregroundPage">
		<title>页-1</title>
		<v:pageProperties v:drawingScale="0.0393701" v:pageScale="0.0393701" v:drawingUnits="24" v:shadowOffsetX="8.50394"
				v:shadowOffsetY="-8.50394"/>
		<v:layer v:name="连接线" v:index="0"/>
		<g id="shape2050-1" v:mID="2050" v:groupContext="shape" transform="translate(119.311,-62.5108)">
			<title>圆角矩形.2050</title>
			<desc>a</desc>
			<v:userDefs>
				<v:ud v:nameU="CTypeTopLeftSnip" v:prompt="" v:val="VT0(0):5"/>
				<v:ud v:nameU="CTypeTopRightSnip" v:prompt="" v:val="VT0(0):5"/>
				<v:ud v:nameU="CTypeBotLeftSnip" v:prompt="" v:val="VT0(0):5"/>
				<v:ud v:nameU="CTypeBotRightSnip" v:prompt="" v:val="VT0(0):5"/>
				<v:ud v:nameU="CornerLockHoriz" v:prompt="" v:val="VT0(1):5"/>
				<v:ud v:nameU="CornerLockVert" v:prompt="" v:val="VT0(1):5"/>
				<v:ud v:nameU="CornerLockDiag" v:prompt="" v:val="VT0(0):5"/>
				<v:ud v:nameU="TopLeftOffset" v:prompt="" v:val="VT0(0.15748031496063):24"/>
				<v:ud v:nameU="TopRightOffset" v:prompt="" v:val="VT0(0.15748031496063):24"/>
				<v:ud v:nameU="BotLeftOffset" v:prompt="" v:val="VT0(0.15748031496063):24"/>
				<v:ud v:nameU="BotRightOffset" v:prompt="" v:val="VT0(0.15748031496063):24"/>
				<v:ud v:nameU="visVersion" v:prompt="" v:val="VT0(15):26"/>
				<v:ud v:nameU="visMasterStencil" v:prompt="" v:val="VT4(Basic_M.vssx)"/>
				<v:ud v:nameU="TopLeftOffset" v:prompt="" v:val="VT0(0.078740154836949):1"/>
				<v:ud v:nameU="TopRightOffset" v:prompt="" v:val="VT0(0.078740154836949):1"/>
				<v:ud v:nameU="BotLeftOffset" v:prompt="" v:val="VT0(0.078740154836949):1"/>
				<v:ud v:nameU="BotRightOffset" v:prompt="" v:val="VT0(0.078740154836949):1"/>
			</v:userDefs>
			<v:textBlock v:margins="rect(4,4,4,4)" v:tabSpace="42.5197"/>
			<v:textRect cx="11.3386" cy="140.696" width="22.68" height="22.6772"/>
			<path d="M5.67 152.03 L17.01 152.03 A5.6692 5.6692 -180 0 0 22.68 146.36 L22.68 135.03 A5.6692 5.6692 -180 0 0 17.01
						 129.36 L5.67 129.36 A5.6692 5.6692 -180 0 0 0 135.03 L0 146.36 A5.6692 5.6692 -180 0 0 5.67 152.03 Z"
					class="st1"/>
			<text x="8.34" y="143.7" class="st2" v:langID="2052"><v:paragraph v:horizAlign="1"/><v:tabList/>a</text>		</g>
		<g id="shape2051-4" v:mID="2051" v:groupContext="shape" transform="translate(164.665,-31.3061)">
			<title>圆角矩形.2051</title>
			<desc>c</desc>
			<v:userDefs>
				<v:ud v:nameU="CTypeTopLeftSnip" v:prompt="" v:val="VT0(0):5"/>
				<v:ud v:nameU="CTypeTopRightSnip" v:prompt="" v:val="VT0(0):5"/>
				<v:ud v:nameU="CTypeBotLeftSnip" v:prompt="" v:val="VT0(0):5"/>
				<v:ud v:nameU="CTypeBotRightSnip" v:prompt="" v:val="VT0(0):5"/>
				<v:ud v:nameU="CornerLockHoriz" v:prompt="" v:val="VT0(1):5"/>
				<v:ud v:nameU="CornerLockVert" v:prompt="" v:val="VT0(1):5"/>
				<v:ud v:nameU="CornerLockDiag" v:prompt="" v:val="VT0(0):5"/>
				<v:ud v:nameU="TopLeftOffset" v:prompt="" v:val="VT0(0.15748031496063):24"/>
				<v:ud v:nameU="TopRightOffset" v:prompt="" v:val="VT0(0.15748031496063):24"/>
				<v:ud v:nameU="BotLeftOffset" v:prompt="" v:val="VT0(0.15748031496063):24"/>
				<v:ud v:nameU="BotRightOffset" v:prompt="" v:val="VT0(0.15748031496063):24"/>
				<v:ud v:nameU="visVersion" v:prompt="" v:val="VT0(15):26"/>
				<v:ud v:nameU="visMasterStencil" v:prompt="" v:val="VT4(Basic_M.vssx)"/>
				<v:ud v:nameU="TopLeftOffset" v:prompt="" v:val="VT0(0.078740154836949):1"/>
				<v:ud v:nameU="TopRightOffset" v:prompt="" v:val="VT0(0.078740154836949):1"/>
				<v:ud v:nameU="BotLeftOffset" v:prompt="" v:val="VT0(0.078740154836949):1"/>
				<v:ud v:nameU="BotRightOffset" v:prompt="" v:val="VT0(0.078740154836949):1"/>
			</v:userDefs>
			<v:textBlock v:margins="rect(4,4,4,4)" v:tabSpace="42.5197"/>
			<v:textRect cx="11.3386" cy="140.696" width="22.68" height="22.6772"/>
			<path d="M5.67 152.03 L17.01 152.03 A5.6692 5.6692 -180 0 0 22.68 146.36 L22.68 135.03 A5.6692 5.6692 -180 0 0 17.01
						 129.36 L5.67 129.36 A5.6692 5.6692 -180 0 0 0 135.03 L0 146.36 A5.6692 5.6692 -180 0 0 5.67 152.03 Z"
					class="st1"/>
			<text x="8.34" y="143.7" class="st2" v:langID="2052"><v:paragraph v:horizAlign="1"/><v:tabList/>c</text>		</g>
		<g id="shape2052-7" v:mID="2052" v:groupContext="shape" transform="translate(141.988,-31.3061)">
			<title>圆角矩形.2052</title>
			<v:userDefs>
				<v:ud v:nameU="CTypeTopLeftSnip" v:prompt="" v:val="VT0(0):5"/>
				<v:ud v:nameU="CTypeTopRightSnip" v:prompt="" v:val="VT0(0):5"/>
				<v:ud v:nameU="CTypeBotLeftSnip" v:prompt="" v:val="VT0(0):5"/>
				<v:ud v:nameU="CTypeBotRightSnip" v:prompt="" v:val="VT0(0):5"/>
				<v:ud v:nameU="CornerLockHoriz" v:prompt="" v:val="VT0(1):5"/>
				<v:ud v:nameU="CornerLockVert" v:prompt="" v:val="VT0(1):5"/>
				<v:ud v:nameU="CornerLockDiag" v:prompt="" v:val="VT0(0):5"/>
				<v:ud v:nameU="TopLeftOffset" v:prompt="" v:val="VT0(0.15748031496063):24"/>
				<v:ud v:nameU="TopRightOffset" v:prompt="" v:val="VT0(0.15748031496063):24"/>
				<v:ud v:nameU="BotLeftOffset" v:prompt="" v:val="VT0(0.15748031496063):24"/>
				<v:ud v:nameU="BotRightOffset" v:prompt="" v:val="VT0(0.15748031496063):24"/>
				<v:ud v:nameU="visVersion" v:prompt="" v:val="VT0(15):26"/>
				<v:ud v:nameU="visMasterStencil" v:prompt="" v:val="VT4(Basic_M.vssx)"/>
				<v:ud v:nameU="TopLeftOffset" v:prompt="" v:val="VT0(0.078740154836949):1"/>
				<v:ud v:nameU="TopRightOffset" v:prompt="" v:val="VT0(0.078740154836949):1"/>
				<v:ud v:nameU="BotLeftOffset" v:prompt="" v:val="VT0(0.078740154836949):1"/>
				<v:ud v:nameU="BotRightOffset" v:prompt="" v:val="VT0(0.078740154836949):1"/>
			</v:userDefs>
			<path d="M5.67 152.03 L17.01 152.03 A5.6692 5.6692 -180 0 0 22.68 146.36 L22.68 135.03 A5.6692 5.6692 -180 0 0 17.01
						 129.36 L5.67 129.36 A5.6692 5.6692 -180 0 0 0 135.03 L0 146.36 A5.6692 5.6692 -180 0 0 5.67 152.03 Z"
					class="st1"/>
		</g>
		<g id="shape2053-9" v:mID="2053" v:groupContext="shape" transform="translate(96.634,-31.3061)">
			<title>圆角矩形.2053</title>
			<v:userDefs>
				<v:ud v:nameU="CTypeTopLeftSnip" v:prompt="" v:val="VT0(0):5"/>
				<v:ud v:nameU="CTypeTopRightSnip" v:prompt="" v:val="VT0(0):5"/>
				<v:ud v:nameU="CTypeBotLeftSnip" v:prompt="" v:val="VT0(0):5"/>
				<v:ud v:nameU="CTypeBotRightSnip" v:prompt="" v:val="VT0(0):5"/>
				<v:ud v:nameU="CornerLockHoriz" v:prompt="" v:val="VT0(1):5"/>
				<v:ud v:nameU="CornerLockVert" v:prompt="" v:val="VT0(1):5"/>
				<v:ud v:nameU="CornerLockDiag" v:prompt="" v:val="VT0(0):5"/>
				<v:ud v:nameU="TopLeftOffset" v:prompt="" v:val="VT0(0.15748031496063):24"/>
				<v:ud v:nameU="TopRightOffset" v:prompt="" v:val="VT0(0.15748031496063):24"/>
				<v:ud v:nameU="BotLeftOffset" v:prompt="" v:val="VT0(0.15748031496063):24"/>
				<v:ud v:nameU="BotRightOffset" v:prompt="" v:val="VT0(0.15748031496063):24"/>
				<v:ud v:nameU="visVersion" v:prompt="" v:val="VT0(15):26"/>
				<v:ud v:nameU="visMasterStencil" v:prompt="" v:val="VT4(Basic_M.vssx)"/>
				<v:ud v:nameU="TopLeftOffset" v:prompt="" v:val="VT0(0.078740154836949):1"/>
				<v:ud v:nameU="TopRightOffset" v:prompt="" v:val="VT0(0.078740154836949):1"/>
				<v:ud v:nameU="BotLeftOffset" v:prompt="" v:val="VT0(0.078740154836949):1"/>
				<v:ud v:nameU="BotRightOffset" v:prompt="" v:val="VT0(0.078740154836949):1"/>
			</v:userDefs>
			<path d="M5.67 152.03 L17.01 152.03 A5.6692 5.6692 -180 0 0 22.68 146.36 L22.68 135.03 A5.6692 5.6692 -180 0 0 17.01
						 129.36 L5.67 129.36 A5.6692 5.6692 -180 0 0 0 135.03 L0 146.36 A5.6692 5.6692 -180 0 0 5.67 152.03 Z"
					class="st3"/>
		</g>
		<g id="shape2054-11" v:mID="2054" v:groupContext="shape" transform="translate(51.2796,-31.3061)">
			<title>圆角矩形.2054</title>
			<v:userDefs>
				<v:ud v:nameU="CTypeTopLeftSnip" v:prompt="" v:val="VT0(0):5"/>
				<v:ud v:nameU="CTypeTopRightSnip" v:prompt="" v:val="VT0(0):5"/>
				<v:ud v:nameU="CTypeBotLeftSnip" v:prompt="" v:val="VT0(0):5"/>
				<v:ud v:nameU="CTypeBotRightSnip" v:prompt="" v:val="VT0(0):5"/>
				<v:ud v:nameU="CornerLockHoriz" v:prompt="" v:val="VT0(1):5"/>
				<v:ud v:nameU="CornerLockVert" v:prompt="" v:val="VT0(1):5"/>
				<v:ud v:nameU="CornerLockDiag" v:prompt="" v:val="VT0(0):5"/>
				<v:ud v:nameU="TopLeftOffset" v:prompt="" v:val="VT0(0.15748031496063):24"/>
				<v:ud v:nameU="TopRightOffset" v:prompt="" v:val="VT0(0.15748031496063):24"/>
				<v:ud v:nameU="BotLeftOffset" v:prompt="" v:val="VT0(0.15748031496063):24"/>
				<v:ud v:nameU="BotRightOffset" v:prompt="" v:val="VT0(0.15748031496063):24"/>
				<v:ud v:nameU="visVersion" v:prompt="" v:val="VT0(15):26"/>
				<v:ud v:nameU="visMasterStencil" v:prompt="" v:val="VT4(Basic_M.vssx)"/>
				<v:ud v:nameU="TopLeftOffset" v:prompt="" v:val="VT0(0.078740154836949):1"/>
				<v:ud v:nameU="TopRightOffset" v:prompt="" v:val="VT0(0.078740154836949):1"/>
				<v:ud v:nameU="BotLeftOffset" v:prompt="" v:val="VT0(0.078740154836949):1"/>
				<v:ud v:nameU="BotRightOffset" v:prompt="" v:val="VT0(0.078740154836949):1"/>
			</v:userDefs>
			<path d="M5.67 152.03 L17.01 152.03 A5.6692 5.6692 -180 0 0 22.68 146.36 L22.68 135.03 A5.6692 5.6692 -180 0 0 17.01
						 129.36 L5.67 129.36 A5.6692 5.6692 -180 0 0 0 135.03 L0 146.36 A5.6692 5.6692 -180 0 0 5.67 152.03 Z"
					class="st3"/>
		</g>
		<g id="shape2055-13" v:mID="2055" v:groupContext="shape" transform="translate(73.9568,-31.3061)">
			<title>圆角矩形.2055</title>
			<desc>b</desc>
			<v:userDefs>
				<v:ud v:nameU="CTypeTopLeftSnip" v:prompt="" v:val="VT0(0):5"/>
				<v:ud v:nameU="CTypeTopRightSnip" v:prompt="" v:val="VT0(0):5"/>
				<v:ud v:nameU="CTypeBotLeftSnip" v:prompt="" v:val="VT0(0):5"/>
				<v:ud v:nameU="CTypeBotRightSnip" v:prompt="" v:val="VT0(0):5"/>
				<v:ud v:nameU="CornerLockHoriz" v:prompt="" v:val="VT0(1):5"/>
				<v:ud v:nameU="CornerLockVert" v:prompt="" v:val="VT0(1):5"/>
				<v:ud v:nameU="CornerLockDiag" v:prompt="" v:val="VT0(0):5"/>
				<v:ud v:nameU="TopLeftOffset" v:prompt="" v:val="VT0(0.15748031496063):24"/>
				<v:ud v:nameU="TopRightOffset" v:prompt="" v:val="VT0(0.15748031496063):24"/>
				<v:ud v:nameU="BotLeftOffset" v:prompt="" v:val="VT0(0.15748031496063):24"/>
				<v:ud v:nameU="BotRightOffset" v:prompt="" v:val="VT0(0.15748031496063):24"/>
				<v:ud v:nameU="visVersion" v:prompt="" v:val="VT0(15):26"/>
				<v:ud v:nameU="visMasterStencil" v:prompt="" v:val="VT4(Basic_M.vssx)"/>
				<v:ud v:nameU="TopLeftOffset" v:prompt="" v:val="VT0(0.078740154836949):1"/>
				<v:ud v:nameU="TopRightOffset" v:prompt="" v:val="VT0(0.078740154836949):1"/>
				<v:ud v:nameU="BotLeftOffset" v:prompt="" v:val="VT0(0.078740154836949):1"/>
				<v:ud v:nameU="BotRightOffset" v:prompt="" v:val="VT0(0.078740154836949):1"/>
			</v:userDefs>
			<v:textBlock v:margins="rect(4,4,4,4)" v:tabSpace="42.5197"/>
			<v:textRect cx="11.3386" cy="140.696" width="22.68" height="22.6772"/>
			<path d="M5.67 152.03 L17.01 152.03 A5.6692 5.6692 -180 0 0 22.68 146.36 L22.68 135.03 A5.6692 5.6692 -180 0 0 17.01
						 129.36 L5.67 129.36 A5.6692 5.6692 -180 0 0 0 135.03 L0 146.36 A5.6692 5.6692 -180 0 0 5.67 152.03 Z"
					class="st1"/>
			<text x="8.34" y="143.7" class="st2" v:langID="2052"><v:paragraph v:horizAlign="1"/><v:tabList/>b</text>		</g>
		<g id="shape2056-16" v:mID="2056" v:groupContext="shape" transform="translate(119.202,-0.125)">
			<title>圆角矩形.2056</title>
			<desc>f</desc>
			<v:userDefs>
				<v:ud v:nameU="CTypeTopLeftSnip" v:prompt="" v:val="VT0(0):5"/>
				<v:ud v:nameU="CTypeTopRightSnip" v:prompt="" v:val="VT0(0):5"/>
				<v:ud v:nameU="CTypeBotLeftSnip" v:prompt="" v:val="VT0(0):5"/>
				<v:ud v:nameU="CTypeBotRightSnip" v:prompt="" v:val="VT0(0):5"/>
				<v:ud v:nameU="CornerLockHoriz" v:prompt="" v:val="VT0(1):5"/>
				<v:ud v:nameU="CornerLockVert" v:prompt="" v:val="VT0(1):5"/>
				<v:ud v:nameU="CornerLockDiag" v:prompt="" v:val="VT0(0):5"/>
				<v:ud v:nameU="TopLeftOffset" v:prompt="" v:val="VT0(0.15748031496063):24"/>
				<v:ud v:nameU="TopRightOffset" v:prompt="" v:val="VT0(0.15748031496063):24"/>
				<v:ud v:nameU="BotLeftOffset" v:prompt="" v:val="VT0(0.15748031496063):24"/>
				<v:ud v:nameU="BotRightOffset" v:prompt="" v:val="VT0(0.15748031496063):24"/>
				<v:ud v:nameU="visVersion" v:prompt="" v:val="VT0(15):26"/>
				<v:ud v:nameU="visMasterStencil" v:prompt="" v:val="VT4(Basic_M.vssx)"/>
				<v:ud v:nameU="TopLeftOffset" v:prompt="" v:val="VT0(0.078740154836949):1"/>
				<v:ud v:nameU="TopRightOffset" v:prompt="" v:val="VT0(0.078740154836949):1"/>
				<v:ud v:nameU="BotLeftOffset" v:prompt="" v:val="VT0(0.078740154836949):1"/>
				<v:ud v:nameU="BotRightOffset" v:prompt="" v:val="VT0(0.078740154836949):1"/>
			</v:userDefs>
			<v:textBlock v:margins="rect(4,4,4,4)" v:tabSpace="42.5197"/>
			<v:textRect cx="11.3386" cy="140.696" width="22.68" height="22.6772"/>
			<path d="M5.67 152.03 L17.01 152.03 A5.6692 5.6692 -180 0 0 22.68 146.36 L22.68 135.03 A5.6692 5.6692 -180 0 0 17.01
						 129.36 L5.67 129.36 A5.6692 5.6692 -180 0 0 0 135.03 L0 146.36 A5.6692 5.6692 -180 0 0 5.67 152.03 Z"
					class="st1"/>
			<text x="8.34" y="143.7" class="st2" v:langID="2052"><v:paragraph v:horizAlign="1"/><v:tabList/>f</text>		</g>
		<g id="shape2057-19" v:mID="2057" v:groupContext="shape" transform="translate(96.5252,-0.125)">
			<title>圆角矩形.2057</title>
			<v:userDefs>
				<v:ud v:nameU="CTypeTopLeftSnip" v:prompt="" v:val="VT0(0):5"/>
				<v:ud v:nameU="CTypeTopRightSnip" v:prompt="" v:val="VT0(0):5"/>
				<v:ud v:nameU="CTypeBotLeftSnip" v:prompt="" v:val="VT0(0):5"/>
				<v:ud v:nameU="CTypeBotRightSnip" v:prompt="" v:val="VT0(0):5"/>
				<v:ud v:nameU="CornerLockHoriz" v:prompt="" v:val="VT0(1):5"/>
				<v:ud v:nameU="CornerLockVert" v:prompt="" v:val="VT0(1):5"/>
				<v:ud v:nameU="CornerLockDiag" v:prompt="" v:val="VT0(0):5"/>
				<v:ud v:nameU="TopLeftOffset" v:prompt="" v:val="VT0(0.15748031496063):24"/>
				<v:ud v:nameU="TopRightOffset" v:prompt="" v:val="VT0(0.15748031496063):24"/>
				<v:ud v:nameU="BotLeftOffset" v:prompt="" v:val="VT0(0.15748031496063):24"/>
				<v:ud v:nameU="BotRightOffset" v:prompt="" v:val="VT0(0.15748031496063):24"/>
				<v:ud v:nameU="visVersion" v:prompt="" v:val="VT0(15):26"/>
				<v:ud v:nameU="visMasterStencil" v:prompt="" v:val="VT4(Basic_M.vssx)"/>
				<v:ud v:nameU="TopLeftOffset" v:prompt="" v:val="VT0(0.078740154836949):1"/>
				<v:ud v:nameU="TopRightOffset" v:prompt="" v:val="VT0(0.078740154836949):1"/>
				<v:ud v:nameU="BotLeftOffset" v:prompt="" v:val="VT0(0.078740154836949):1"/>
				<v:ud v:nameU="BotRightOffset" v:prompt="" v:val="VT0(0.078740154836949):1"/>
			</v:userDefs>
			<path d="M5.67 152.03 L17.01 152.03 A5.6692 5.6692 -180 0 0 22.68 146.36 L22.68 135.03 A5.6692 5.6692 -180 0 0 17.01
						 129.36 L5.67 129.36 A5.6692 5.6692 -180 0 0 0 135.03 L0 146.36 A5.6692 5.6692 -180 0 0 5.67 152.03 Z"
					class="st1"/>
		</g>
		<g id="shape2058-21" v:mID="2058" v:groupContext="shape" transform="translate(141.88,-0.125)">
			<title>圆角矩形.2058</title>
			<v:userDefs>
				<v:ud v:nameU="CTypeTopLeftSnip" v:prompt="" v:val="VT0(0):5"/>
				<v:ud v:nameU="CTypeTopRightSnip" v:prompt="" v:val="VT0(0):5"/>
				<v:ud v:nameU="CTypeBotLeftSnip" v:prompt="" v:val="VT0(0):5"/>
				<v:ud v:nameU="CTypeBotRightSnip" v:prompt="" v:val="VT0(0):5"/>
				<v:ud v:nameU="CornerLockHoriz" v:prompt="" v:val="VT0(1):5"/>
				<v:ud v:nameU="CornerLockVert" v:prompt="" v:val="VT0(1):5"/>
				<v:ud v:nameU="CornerLockDiag" v:prompt="" v:val="VT0(0):5"/>
				<v:ud v:nameU="TopLeftOffset" v:prompt="" v:val="VT0(0.15748031496063):24"/>
				<v:ud v:nameU="TopRightOffset" v:prompt="" v:val="VT0(0.15748031496063):24"/>
				<v:ud v:nameU="BotLeftOffset" v:prompt="" v:val="VT0(0.15748031496063):24"/>
				<v:ud v:nameU="BotRightOffset" v:prompt="" v:val="VT0(0.15748031496063):24"/>
				<v:ud v:nameU="visVersion" v:prompt="" v:val="VT0(15):26"/>
				<v:ud v:nameU="visMasterStencil" v:prompt="" v:val="VT4(Basic_M.vssx)"/>
				<v:ud v:nameU="TopLeftOffset" v:prompt="" v:val="VT0(0.078740154836949):1"/>
				<v:ud v:nameU="TopRightOffset" v:prompt="" v:val="VT0(0.078740154836949):1"/>
				<v:ud v:nameU="BotLeftOffset" v:prompt="" v:val="VT0(0.078740154836949):1"/>
				<v:ud v:nameU="BotRightOffset" v:prompt="" v:val="VT0(0.078740154836949):1"/>
			</v:userDefs>
			<path d="M5.67 152.03 L17.01 152.03 A5.6692 5.6692 -180 0 0 22.68 146.36 L22.68 135.03 A5.6692 5.6692 -180 0 0 17.01
						 129.36 L5.67 129.36 A5.6692 5.6692 -180 0 0 0 135.03 L0 146.36 A5.6692 5.6692 -180 0 0 5.67 152.03 Z"
					class="st1"/>
		</g>
		<g id="shape2059-23" v:mID="2059" v:groupContext="shape" transform="translate(51.1709,-0.125)">
			<title>圆角矩形.2059</title>
			<v:userDefs>
				<v:ud v:nameU="CTypeTopLeftSnip" v:prompt="" v:val="VT0(0):5"/>
				<v:ud v:nameU="CTypeTopRightSnip" v:prompt="" v:val="VT0(0):5"/>
				<v:ud v:nameU="CTypeBotLeftSnip" v:prompt="" v:val="VT0(0):5"/>
				<v:ud v:nameU="CTypeBotRightSnip" v:prompt="" v:val="VT0(0):5"/>
				<v:ud v:nameU="CornerLockHoriz" v:prompt="" v:val="VT0(1):5"/>
				<v:ud v:nameU="CornerLockVert" v:prompt="" v:val="VT0(1):5"/>
				<v:ud v:nameU="CornerLockDiag" v:prompt="" v:val="VT0(0):5"/>
				<v:ud v:nameU="TopLeftOffset" v:prompt="" v:val="VT0(0.15748031496063):24"/>
				<v:ud v:nameU="TopRightOffset" v:prompt="" v:val="VT0(0.15748031496063):24"/>
				<v:ud v:nameU="BotLeftOffset" v:prompt="" v:val="VT0(0.15748031496063):24"/>
				<v:ud v:nameU="BotRightOffset" v:prompt="" v:val="VT0(0.15748031496063):24"/>
				<v:ud v:nameU="visVersion" v:prompt="" v:val="VT0(15):26"/>
				<v:ud v:nameU="visMasterStencil" v:prompt="" v:val="VT4(Basic_M.vssx)"/>
				<v:ud v:nameU="TopLeftOffset" v:prompt="" v:val="VT0(0.078740154836949):1"/>
				<v:ud v:nameU="TopRightOffset" v:prompt="" v:val="VT0(0.078740154836949):1"/>
				<v:ud v:nameU="BotLeftOffset" v:prompt="" v:val="VT0(0.078740154836949):1"/>
				<v:ud v:nameU="BotRightOffset" v:prompt="" v:val="VT0(0.078740154836949):1"/>
			</v:userDefs>
			<path d="M5.67 152.03 L17.01 152.03 A5.6692 5.6692 -180 0 0 22.68 146.36 L22.68 135.03 A5.6692 5.6692 -180 0 0 17.01
						 129.36 L5.67 129.36 A5.6692 5.6692 -180 0 0 0 135.03 L0 146.36 A5.6692 5.6692 -180 0 0 5.67 152.03 Z"
					class="st1"/>
		</g>
		<g id="shape2061-25" v:mID="2061" v:groupContext="shape" transform="translate(28.4938,-0.125)">
			<title>圆角矩形.2061</title>
			<desc>d</desc>
			<v:userDefs>
				<v:ud v:nameU="CTypeTopLeftSnip" v:prompt="" v:val="VT0(0):5"/>
				<v:ud v:nameU="CTypeTopRightSnip" v:prompt="" v:val="VT0(0):5"/>
				<v:ud v:nameU="CTypeBotLeftSnip" v:prompt="" v:val="VT0(0):5"/>
				<v:ud v:nameU="CTypeBotRightSnip" v:prompt="" v:val="VT0(0):5"/>
				<v:ud v:nameU="CornerLockHoriz" v:prompt="" v:val="VT0(1):5"/>
				<v:ud v:nameU="CornerLockVert" v:prompt="" v:val="VT0(1):5"/>
				<v:ud v:nameU="CornerLockDiag" v:prompt="" v:val="VT0(0):5"/>
				<v:ud v:nameU="TopLeftOffset" v:prompt="" v:val="VT0(0.15748031496063):24"/>
				<v:ud v:nameU="TopRightOffset" v:prompt="" v:val="VT0(0.15748031496063):24"/>
				<v:ud v:nameU="BotLeftOffset" v:prompt="" v:val="VT0(0.15748031496063):24"/>
				<v:ud v:nameU="BotRightOffset" v:prompt="" v:val="VT0(0.15748031496063):24"/>
				<v:ud v:nameU="visVersion" v:prompt="" v:val="VT0(15):26"/>
				<v:ud v:nameU="visMasterStencil" v:prompt="" v:val="VT4(Basic_M.vssx)"/>
				<v:ud v:nameU="TopLeftOffset" v:prompt="" v:val="VT0(0.078740154836949):1"/>
				<v:ud v:nameU="TopRightOffset" v:prompt="" v:val="VT0(0.078740154836949):1"/>
				<v:ud v:nameU="BotLeftOffset" v:prompt="" v:val="VT0(0.078740154836949):1"/>
				<v:ud v:nameU="BotRightOffset" v:prompt="" v:val="VT0(0.078740154836949):1"/>
			</v:userDefs>
			<v:textBlock v:margins="rect(4,4,4,4)" v:tabSpace="42.5197"/>
			<v:textRect cx="11.3386" cy="140.696" width="22.68" height="22.6772"/>
			<path d="M5.67 152.03 L17.01 152.03 A5.6692 5.6692 -180 0 0 22.68 146.36 L22.68 135.03 A5.6692 5.6692 -180 0 0 17.01
						 129.36 L5.67 129.36 A5.6692 5.6692 -180 0 0 0 135.03 L0 146.36 A5.6692 5.6692 -180 0 0 5.67 152.03 Z"
					class="st1"/>
			<text x="8.34" y="143.7" class="st2" v:langID="2052"><v:paragraph v:horizAlign="1"/><v:tabList/>d</text>		</g>
		<g id="shape2062-28" v:mID="2062" v:groupContext="shape" transform="translate(210.103,-0.125)">
			<title>圆角矩形.2062</title>
			<desc>g</desc>
			<v:userDefs>
				<v:ud v:nameU="CTypeTopLeftSnip" v:prompt="" v:val="VT0(0):5"/>
				<v:ud v:nameU="CTypeTopRightSnip" v:prompt="" v:val="VT0(0):5"/>
				<v:ud v:nameU="CTypeBotLeftSnip" v:prompt="" v:val="VT0(0):5"/>
				<v:ud v:nameU="CTypeBotRightSnip" v:prompt="" v:val="VT0(0):5"/>
				<v:ud v:nameU="CornerLockHoriz" v:prompt="" v:val="VT0(1):5"/>
				<v:ud v:nameU="CornerLockVert" v:prompt="" v:val="VT0(1):5"/>
				<v:ud v:nameU="CornerLockDiag" v:prompt="" v:val="VT0(0):5"/>
				<v:ud v:nameU="TopLeftOffset" v:prompt="" v:val="VT0(0.15748031496063):24"/>
				<v:ud v:nameU="TopRightOffset" v:prompt="" v:val="VT0(0.15748031496063):24"/>
				<v:ud v:nameU="BotLeftOffset" v:prompt="" v:val="VT0(0.15748031496063):24"/>
				<v:ud v:nameU="BotRightOffset" v:prompt="" v:val="VT0(0.15748031496063):24"/>
				<v:ud v:nameU="visVersion" v:prompt="" v:val="VT0(15):26"/>
				<v:ud v:nameU="visMasterStencil" v:prompt="" v:val="VT4(Basic_M.vssx)"/>
				<v:ud v:nameU="TopLeftOffset" v:prompt="" v:val="VT0(0.078740154836949):1"/>
				<v:ud v:nameU="TopRightOffset" v:prompt="" v:val="VT0(0.078740154836949):1"/>
				<v:ud v:nameU="BotLeftOffset" v:prompt="" v:val="VT0(0.078740154836949):1"/>
				<v:ud v:nameU="BotRightOffset" v:prompt="" v:val="VT0(0.078740154836949):1"/>
			</v:userDefs>
			<v:textBlock v:margins="rect(4,4,4,4)" v:tabSpace="42.5197"/>
			<v:textRect cx="11.3386" cy="140.696" width="22.68" height="22.6772"/>
			<path d="M5.67 152.03 L17.01 152.03 A5.6692 5.6692 -180 0 0 22.68 146.36 L22.68 135.03 A5.6692 5.6692 -180 0 0 17.01
						 129.36 L5.67 129.36 A5.6692 5.6692 -180 0 0 0 135.03 L0 146.36 A5.6692 5.6692 -180 0 0 5.67 152.03 Z"
					class="st1"/>
			<text x="8.34" y="143.7" class="st2" v:langID="2052"><v:paragraph v:horizAlign="1"/><v:tabList/>g</text>		</g>
		<g id="shape2063-31" v:mID="2063" v:groupContext="shape" transform="translate(187.343,-0.125)">
			<title>圆角矩形.2063</title>
			<v:userDefs>
				<v:ud v:nameU="CTypeTopLeftSnip" v:prompt="" v:val="VT0(0):5"/>
				<v:ud v:nameU="CTypeTopRightSnip" v:prompt="" v:val="VT0(0):5"/>
				<v:ud v:nameU="CTypeBotLeftSnip" v:prompt="" v:val="VT0(0):5"/>
				<v:ud v:nameU="CTypeBotRightSnip" v:prompt="" v:val="VT0(0):5"/>
				<v:ud v:nameU="CornerLockHoriz" v:prompt="" v:val="VT0(1):5"/>
				<v:ud v:nameU="CornerLockVert" v:prompt="" v:val="VT0(1):5"/>
				<v:ud v:nameU="CornerLockDiag" v:prompt="" v:val="VT0(0):5"/>
				<v:ud v:nameU="TopLeftOffset" v:prompt="" v:val="VT0(0.15748031496063):24"/>
				<v:ud v:nameU="TopRightOffset" v:prompt="" v:val="VT0(0.15748031496063):24"/>
				<v:ud v:nameU="BotLeftOffset" v:prompt="" v:val="VT0(0.15748031496063):24"/>
				<v:ud v:nameU="BotRightOffset" v:prompt="" v:val="VT0(0.15748031496063):24"/>
				<v:ud v:nameU="visVersion" v:prompt="" v:val="VT0(15):26"/>
				<v:ud v:nameU="visMasterStencil" v:prompt="" v:val="VT4(Basic_M.vssx)"/>
				<v:ud v:nameU="TopLeftOffset" v:prompt="" v:val="VT0(0.078740154836949):1"/>
				<v:ud v:nameU="TopRightOffset" v:prompt="" v:val="VT0(0.078740154836949):1"/>
				<v:ud v:nameU="BotLeftOffset" v:prompt="" v:val="VT0(0.078740154836949):1"/>
				<v:ud v:nameU="BotRightOffset" v:prompt="" v:val="VT0(0.078740154836949):1"/>
			</v:userDefs>
			<path d="M5.67 152.03 L17.01 152.03 A5.6692 5.6692 -180 0 0 22.68 146.36 L22.68 135.03 A5.6692 5.6692 -180 0 0 17.01
						 129.36 L5.67 129.36 A5.6692 5.6692 -180 0 0 0 135.03 L0 146.36 A5.6692 5.6692 -180 0 0 5.67 152.03 Z"
					class="st1"/>
		</g>
		<g id="shape2064-33" v:mID="2064" v:groupContext="shape" transform="translate(232.864,-0.125)">
			<title>圆角矩形.2064</title>
			<v:userDefs>
				<v:ud v:nameU="CTypeTopLeftSnip" v:prompt="" v:val="VT0(0):5"/>
				<v:ud v:nameU="CTypeTopRightSnip" v:prompt="" v:val="VT0(0):5"/>
				<v:ud v:nameU="CTypeBotLeftSnip" v:prompt="" v:val="VT0(0):5"/>
				<v:ud v:nameU="CTypeBotRightSnip" v:prompt="" v:val="VT0(0):5"/>
				<v:ud v:nameU="CornerLockHoriz" v:prompt="" v:val="VT0(1):5"/>
				<v:ud v:nameU="CornerLockVert" v:prompt="" v:val="VT0(1):5"/>
				<v:ud v:nameU="CornerLockDiag" v:prompt="" v:val="VT0(0):5"/>
				<v:ud v:nameU="TopLeftOffset" v:prompt="" v:val="VT0(0.15748031496063):24"/>
				<v:ud v:nameU="TopRightOffset" v:prompt="" v:val="VT0(0.15748031496063):24"/>
				<v:ud v:nameU="BotLeftOffset" v:prompt="" v:val="VT0(0.15748031496063):24"/>
				<v:ud v:nameU="BotRightOffset" v:prompt="" v:val="VT0(0.15748031496063):24"/>
				<v:ud v:nameU="visVersion" v:prompt="" v:val="VT0(15):26"/>
				<v:ud v:nameU="visMasterStencil" v:prompt="" v:val="VT4(Basic_M.vssx)"/>
				<v:ud v:nameU="TopLeftOffset" v:prompt="" v:val="VT0(0.078740154836949):1"/>
				<v:ud v:nameU="TopRightOffset" v:prompt="" v:val="VT0(0.078740154836949):1"/>
				<v:ud v:nameU="BotLeftOffset" v:prompt="" v:val="VT0(0.078740154836949):1"/>
				<v:ud v:nameU="BotRightOffset" v:prompt="" v:val="VT0(0.078740154836949):1"/>
			</v:userDefs>
			<path d="M5.67 152.03 L17.01 152.03 A5.6692 5.6692 -180 0 0 22.68 146.36 L22.68 135.03 A5.6692 5.6692 -180 0 0 17.01
						 129.36 L5.67 129.36 A5.6692 5.6692 -180 0 0 0 135.03 L0 146.36 A5.6692 5.6692 -180 0 0 5.67 152.03 Z"
					class="st1"/>
		</g>
		<g id="shape2065-35" v:mID="2065" v:groupContext="shape" v:layerMember="0" transform="translate(52.6426,-42.6447)">
			<title>动态连接线.2065</title>
			<path d="M-1.36 152.03 C-4.22 152.03 -8.22 152.03 -10.35 155.25 C-12.81 158.95 -12.81 166.92 -12.81 171.88" class="st4"/>
		</g>
		<g id="shape2066-38" v:mID="2066" v:groupContext="shape" v:layerMember="0" transform="translate(117.839,-42.6447)">
			<title>动态连接线.2066</title>
			<path d="M1.47 152.03 C4.28 152.03 8.19 152.03 10.28 155.24 C12.7 158.94 12.7 166.92 12.7 171.88" class="st4"/>
		</g>
		<g id="shape2067-41" v:mID="2067" v:groupContext="shape" transform="translate(96.634,-62.5108)">
			<title>圆角矩形.2067</title>
			<v:userDefs>
				<v:ud v:nameU="CTypeTopLeftSnip" v:prompt="" v:val="VT0(0):5"/>
				<v:ud v:nameU="CTypeTopRightSnip" v:prompt="" v:val="VT0(0):5"/>
				<v:ud v:nameU="CTypeBotLeftSnip" v:prompt="" v:val="VT0(0):5"/>
				<v:ud v:nameU="CTypeBotRightSnip" v:prompt="" v:val="VT0(0):5"/>
				<v:ud v:nameU="CornerLockHoriz" v:prompt="" v:val="VT0(1):5"/>
				<v:ud v:nameU="CornerLockVert" v:prompt="" v:val="VT0(1):5"/>
				<v:ud v:nameU="CornerLockDiag" v:prompt="" v:val="VT0(0):5"/>
				<v:ud v:nameU="TopLeftOffset" v:prompt="" v:val="VT0(0.15748031496063):24"/>
				<v:ud v:nameU="TopRightOffset" v:prompt="" v:val="VT0(0.15748031496063):24"/>
				<v:ud v:nameU="BotLeftOffset" v:prompt="" v:val="VT0(0.15748031496063):24"/>
				<v:ud v:nameU="BotRightOffset" v:prompt="" v:val="VT0(0.15748031496063):24"/>
				<v:ud v:nameU="visVersion" v:prompt="" v:val="VT0(15):26"/>
				<v:ud v:nameU="visMasterStencil" v:prompt="" v:val="VT4(Basic_M.vssx)"/>
				<v:ud v:nameU="TopLeftOffset" v:prompt="" v:val="VT0(0.078740154836949):1"/>
				<v:ud v:nameU="TopRightOffset" v:prompt="" v:val="VT0(0.078740154836949):1"/>
				<v:ud v:nameU="BotLeftOffset" v:prompt="" v:val="VT0(0.078740154836949):1"/>
				<v:ud v:nameU="BotRightOffset" v:prompt="" v:val="VT0(0.078740154836949):1"/>
			</v:userDefs>
			<path d="M5.67 152.03 L17.01 152.03 A5.6692 5.6692 -180 0 0 22.68 146.36 L22.68 135.03 A5.6692 5.6692 -180 0 0 17.01
						 129.36 L5.67 129.36 A5.6692 5.6692 -180 0 0 0 135.03 L0 146.36 A5.6692 5.6692 -180 0 0 5.67 152.03 Z"
					class="st3"/>
		</g>
		<g id="shape2068-43" v:mID="2068" v:groupContext="shape" transform="translate(141.988,-62.5108)">
			<title>圆角矩形.2068</title>
			<v:userDefs>
				<v:ud v:nameU="CTypeTopLeftSnip" v:prompt="" v:val="VT0(0):5"/>
				<v:ud v:nameU="CTypeTopRightSnip" v:prompt="" v:val="VT0(0):5"/>
				<v:ud v:nameU="CTypeBotLeftSnip" v:prompt="" v:val="VT0(0):5"/>
				<v:ud v:nameU="CTypeBotRightSnip" v:prompt="" v:val="VT0(0):5"/>
				<v:ud v:nameU="CornerLockHoriz" v:prompt="" v:val="VT0(1):5"/>
				<v:ud v:nameU="CornerLockVert" v:prompt="" v:val="VT0(1):5"/>
				<v:ud v:nameU="CornerLockDiag" v:prompt="" v:val="VT0(0):5"/>
				<v:ud v:nameU="TopLeftOffset" v:prompt="" v:val="VT0(0.15748031496063):24"/>
				<v:ud v:nameU="TopRightOffset" v:prompt="" v:val="VT0(0.15748031496063):24"/>
				<v:ud v:nameU="BotLeftOffset" v:prompt="" v:val="VT0(0.15748031496063):24"/>
				<v:ud v:nameU="BotRightOffset" v:prompt="" v:val="VT0(0.15748031496063):24"/>
				<v:ud v:nameU="visVersion" v:prompt="" v:val="VT0(15):26"/>
				<v:ud v:nameU="visMasterStencil" v:prompt="" v:val="VT4(Basic_M.vssx)"/>
				<v:ud v:nameU="TopLeftOffset" v:prompt="" v:val="VT0(0.078740154836949):1"/>
				<v:ud v:nameU="TopRightOffset" v:prompt="" v:val="VT0(0.078740154836949):1"/>
				<v:ud v:nameU="BotLeftOffset" v:prompt="" v:val="VT0(0.078740154836949):1"/>
				<v:ud v:nameU="BotRightOffset" v:prompt="" v:val="VT0(0.078740154836949):1"/>
			</v:userDefs>
			<path d="M5.67 152.03 L17.01 152.03 A5.6692 5.6692 -180 0 0 22.68 146.36 L22.68 135.03 A5.6692 5.6692 -180 0 0 17.01
						 129.36 L5.67 129.36 A5.6692 5.6692 -180 0 0 0 135.03 L0 146.36 A5.6692 5.6692 -180 0 0 5.67 152.03 Z"
					class="st3"/>
		</g>
		<g id="shape2069-45" v:mID="2069" v:groupContext="shape" transform="translate(187.343,-31.3061)">
			<title>圆角矩形.2069</title>
			<v:userDefs>
				<v:ud v:nameU="CTypeTopLeftSnip" v:prompt="" v:val="VT0(0):5"/>
				<v:ud v:nameU="CTypeTopRightSnip" v:prompt="" v:val="VT0(0):5"/>
				<v:ud v:nameU="CTypeBotLeftSnip" v:prompt="" v:val="VT0(0):5"/>
				<v:ud v:nameU="CTypeBotRightSnip" v:prompt="" v:val="VT0(0):5"/>
				<v:ud v:nameU="CornerLockHoriz" v:prompt="" v:val="VT0(1):5"/>
				<v:ud v:nameU="CornerLockVert" v:prompt="" v:val="VT0(1):5"/>
				<v:ud v:nameU="CornerLockDiag" v:prompt="" v:val="VT0(0):5"/>
				<v:ud v:nameU="TopLeftOffset" v:prompt="" v:val="VT0(0.15748031496063):24"/>
				<v:ud v:nameU="TopRightOffset" v:prompt="" v:val="VT0(0.15748031496063):24"/>
				<v:ud v:nameU="BotLeftOffset" v:prompt="" v:val="VT0(0.15748031496063):24"/>
				<v:ud v:nameU="BotRightOffset" v:prompt="" v:val="VT0(0.15748031496063):24"/>
				<v:ud v:nameU="visVersion" v:prompt="" v:val="VT0(15):26"/>
				<v:ud v:nameU="visMasterStencil" v:prompt="" v:val="VT4(Basic_M.vssx)"/>
				<v:ud v:nameU="TopLeftOffset" v:prompt="" v:val="VT0(0.078740154836949):1"/>
				<v:ud v:nameU="TopRightOffset" v:prompt="" v:val="VT0(0.078740154836949):1"/>
				<v:ud v:nameU="BotLeftOffset" v:prompt="" v:val="VT0(0.078740154836949):1"/>
				<v:ud v:nameU="BotRightOffset" v:prompt="" v:val="VT0(0.078740154836949):1"/>
			</v:userDefs>
			<path d="M5.67 152.03 L17.01 152.03 A5.6692 5.6692 -180 0 0 22.68 146.36 L22.68 135.03 A5.6692 5.6692 -180 0 0 17.01
						 129.36 L5.67 129.36 A5.6692 5.6692 -180 0 0 0 135.03 L0 146.36 A5.6692 5.6692 -180 0 0 5.67 152.03 Z"
					class="st3"/>
		</g>
		<g id="shape2070-47" v:mID="2070" v:groupContext="shape" v:layerMember="0" transform="translate(98.0513,-73.8494)">
			<title>动态连接线.2070</title>
			<path d="M-1.42 152.03 C-4.25 152.03 -8.2 152.03 -10.31 155.25 C-12.76 158.95 -12.76 166.93 -12.76 171.9" class="st4"/>
		</g>
		<g id="shape2071-50" v:mID="2071" v:groupContext="shape" v:layerMember="0" transform="translate(163.248,-73.8494)">
			<title>动态连接线.2071</title>
			<path d="M1.42 152.03 C4.25 152.03 8.2 152.03 10.31 155.25 C12.76 158.95 12.76 166.93 12.76 171.9" class="st4"/>
		</g>
		<g id="shape2072-53" v:mID="2072" v:groupContext="shape" v:layerMember="0" transform="translate(208.644,-42.6447)">
			<title>动态连接线.2072</title>
			<path d="M1.38 152.03 C4.23 152.03 8.21 152.03 10.34 155.25 C12.8 158.95 12.8 166.92 12.8 171.88" class="st4"/>
		</g>
		<g id="shape2073-56" v:mID="2073" v:groupContext="shape" v:layerMember="0" transform="translate(62.5095,-11.4636)">
			<title>动态连接线.2073</title>
			<path d="M0 152.03 C0 152.03 22.81 151.44 22.79 132.19" class="st5"/>
		</g>
		<g id="shape2074-59" v:mID="2074" v:groupContext="shape" v:layerMember="0" transform="translate(85.2954,-31.3061)">
			<title>动态连接线.2074</title>
			<path d="M0 152.03 C0.03 172.7 22.57 171.88 22.57 171.88" class="st5"/>
		</g>
		<g id="shape2075-62" v:mID="2075" v:groupContext="shape" v:layerMember="0" transform="translate(153.327,-42.6447)">
			<title>动态连接线.2075</title>
			<path d="M0 152.03 C-0 152.03 -22.65 152 -22.68 132.17" class="st5"/>
		</g>
		<g id="shape2076-65" v:mID="2076" v:groupContext="shape" v:layerMember="0" transform="translate(198.681,-11.4636)">
			<title>动态连接线.2076</title>
			<path d="M0 152.03 C0 152.03 -22.65 154.56 -22.68 132.19" class="st5"/>
		</g>
		<g id="shape2077-68" v:mID="2077" v:groupContext="shape" v:layerMember="0" transform="translate(153.218,-11.4636)">
			<title>动态连接线.2077</title>
			<path d="M0 152.03 C0 138.04 -3.49 134.6 -7.58 133.77 C-14.27 132.42 -22.57 138.04 -22.57 100.99" class="st5"/>
		</g>
		<g id="shape2078-71" v:mID="2078" v:groupContext="shape" transform="translate(119.34,-93.7155)">
			<title>圆角矩形.2078</title>
			<desc>*</desc>
			<v:userDefs>
				<v:ud v:nameU="CTypeTopLeftSnip" v:prompt="" v:val="VT0(0):5"/>
				<v:ud v:nameU="CTypeTopRightSnip" v:prompt="" v:val="VT0(0):5"/>
				<v:ud v:nameU="CTypeBotLeftSnip" v:prompt="" v:val="VT0(0):5"/>
				<v:ud v:nameU="CTypeBotRightSnip" v:prompt="" v:val="VT0(0):5"/>
				<v:ud v:nameU="CornerLockHoriz" v:prompt="" v:val="VT0(1):5"/>
				<v:ud v:nameU="CornerLockVert" v:prompt="" v:val="VT0(1):5"/>
				<v:ud v:nameU="CornerLockDiag" v:prompt="" v:val="VT0(0):5"/>
				<v:ud v:nameU="TopLeftOffset" v:prompt="" v:val="VT0(0.15748031496063):24"/>
				<v:ud v:nameU="TopRightOffset" v:prompt="" v:val="VT0(0.15748031496063):24"/>
				<v:ud v:nameU="BotLeftOffset" v:prompt="" v:val="VT0(0.15748031496063):24"/>
				<v:ud v:nameU="BotRightOffset" v:prompt="" v:val="VT0(0.15748031496063):24"/>
				<v:ud v:nameU="visVersion" v:prompt="" v:val="VT0(15):26"/>
				<v:ud v:nameU="visMasterStencil" v:prompt="" v:val="VT4(Basic_M.vssx)"/>
				<v:ud v:nameU="TopLeftOffset" v:prompt="" v:val="VT0(0.078740154836949):1"/>
				<v:ud v:nameU="TopRightOffset" v:prompt="" v:val="VT0(0.078740154836949):1"/>
				<v:ud v:nameU="BotLeftOffset" v:prompt="" v:val="VT0(0.078740154836949):1"/>
				<v:ud v:nameU="BotRightOffset" v:prompt="" v:val="VT0(0.078740154836949):1"/>
			</v:userDefs>
			<v:textBlock v:margins="rect(4,4,4,4)" v:tabSpace="42.5197"/>
			<v:textRect cx="11.3386" cy="140.696" width="22.68" height="22.6772"/>
			<path d="M5.67 152.03 L17.01 152.03 A5.6692 5.6692 -180 0 0 22.68 146.36 L22.68 135.03 A5.6692 5.6692 -180 0 0 17.01
						 129.36 L5.67 129.36 A5.6692 5.6692 -180 0 0 0 135.03 L0 146.36 A5.6692 5.6692 -180 0 0 5.67 152.03 Z"
					class="st6"/>
			<text x="8.34" y="143.7" class="st2" v:langID="2052"><v:paragraph v:horizAlign="1"/><v:tabList/>*</text>		</g>
		<g id="shape2079-74" v:mID="2079" v:groupContext="shape" transform="translate(96.634,-93.7155)">
			<title>圆角矩形.2079</title>
			<v:userDefs>
				<v:ud v:nameU="CTypeTopLeftSnip" v:prompt="" v:val="VT0(0):5"/>
				<v:ud v:nameU="CTypeTopRightSnip" v:prompt="" v:val="VT0(0):5"/>
				<v:ud v:nameU="CTypeBotLeftSnip" v:prompt="" v:val="VT0(0):5"/>
				<v:ud v:nameU="CTypeBotRightSnip" v:prompt="" v:val="VT0(0):5"/>
				<v:ud v:nameU="CornerLockHoriz" v:prompt="" v:val="VT0(1):5"/>
				<v:ud v:nameU="CornerLockVert" v:prompt="" v:val="VT0(1):5"/>
				<v:ud v:nameU="CornerLockDiag" v:prompt="" v:val="VT0(0):5"/>
				<v:ud v:nameU="TopLeftOffset" v:prompt="" v:val="VT0(0.15748031496063):24"/>
				<v:ud v:nameU="TopRightOffset" v:prompt="" v:val="VT0(0.15748031496063):24"/>
				<v:ud v:nameU="BotLeftOffset" v:prompt="" v:val="VT0(0.15748031496063):24"/>
				<v:ud v:nameU="BotRightOffset" v:prompt="" v:val="VT0(0.15748031496063):24"/>
				<v:ud v:nameU="visVersion" v:prompt="" v:val="VT0(15):26"/>
				<v:ud v:nameU="visMasterStencil" v:prompt="" v:val="VT4(Basic_M.vssx)"/>
				<v:ud v:nameU="TopLeftOffset" v:prompt="" v:val="VT0(0.078740154836949):1"/>
				<v:ud v:nameU="TopRightOffset" v:prompt="" v:val="VT0(0.078740154836949):1"/>
				<v:ud v:nameU="BotLeftOffset" v:prompt="" v:val="VT0(0.078740154836949):1"/>
				<v:ud v:nameU="BotRightOffset" v:prompt="" v:val="VT0(0.078740154836949):1"/>
			</v:userDefs>
			<path d="M5.67 152.03 L17.01 152.03 A5.6692 5.6692 -180 0 0 22.68 146.36 L22.68 135.03 A5.6692 5.6692 -180 0 0 17.01
						 129.36 L5.67 129.36 A5.6692 5.6692 -180 0 0 0 135.03 L0 146.36 A5.6692 5.6692 -180 0 0 5.67 152.03 Z"
					class="st3"/>
		</g>
		<g id="shape2080-76" v:mID="2080" v:groupContext="shape" transform="translate(141.988,-93.7155)">
			<title>圆角矩形.2080</title>
			<v:userDefs>
				<v:ud v:nameU="CTypeTopLeftSnip" v:prompt="" v:val="VT0(0):5"/>
				<v:ud v:nameU="CTypeTopRightSnip" v:prompt="" v:val="VT0(0):5"/>
				<v:ud v:nameU="CTypeBotLeftSnip" v:prompt="" v:val="VT0(0):5"/>
				<v:ud v:nameU="CTypeBotRightSnip" v:prompt="" v:val="VT0(0):5"/>
				<v:ud v:nameU="CornerLockHoriz" v:prompt="" v:val="VT0(1):5"/>
				<v:ud v:nameU="CornerLockVert" v:prompt="" v:val="VT0(1):5"/>
				<v:ud v:nameU="CornerLockDiag" v:prompt="" v:val="VT0(0):5"/>
				<v:ud v:nameU="TopLeftOffset" v:prompt="" v:val="VT0(0.15748031496063):24"/>
				<v:ud v:nameU="TopRightOffset" v:prompt="" v:val="VT0(0.15748031496063):24"/>
				<v:ud v:nameU="BotLeftOffset" v:prompt="" v:val="VT0(0.15748031496063):24"/>
				<v:ud v:nameU="BotRightOffset" v:prompt="" v:val="VT0(0.15748031496063):24"/>
				<v:ud v:nameU="visVersion" v:prompt="" v:val="VT0(15):26"/>
				<v:ud v:nameU="visMasterStencil" v:prompt="" v:val="VT4(Basic_M.vssx)"/>
				<v:ud v:nameU="TopLeftOffset" v:prompt="" v:val="VT0(0.078740154836949):1"/>
				<v:ud v:nameU="TopRightOffset" v:prompt="" v:val="VT0(0.078740154836949):1"/>
				<v:ud v:nameU="BotLeftOffset" v:prompt="" v:val="VT0(0.078740154836949):1"/>
				<v:ud v:nameU="BotRightOffset" v:prompt="" v:val="VT0(0.078740154836949):1"/>
			</v:userDefs>
			<path d="M5.67 152.03 L17.01 152.03 A5.6692 5.6692 -180 0 0 22.68 146.36 L22.68 135.03 A5.6692 5.6692 -180 0 0 17.01
						 129.36 L5.67 129.36 A5.6692 5.6692 -180 0 0 0 135.03 L0 146.36 A5.6692 5.6692 -180 0 0 5.67 152.03 Z"
					class="st1"/>
		</g>
		<g id="shape2087-78" v:mID="2087" v:groupContext="shape" v:layerMember="0" transform="translate(130.679,-116.393)">
			<title>动态连接线.2087</title>
			<path d="M0 152.03 C-0 141.4 29.27 141.64 54.17 141.41 C82.32 141.16 104.89 140.32 115.34 153.7 C124.72 165.7 124.37
						 189.11 124.9 209.58 C125.39 228.54 126.64 244.97 120.06 252.42 C117.42 255.42 113.52 256.96 113.52 256.96"
					class="st5"/>
		</g>
		<g id="shape2089-81" v:mID="2089" v:groupContext="shape" v:layerMember="0" transform="translate(107.973,-96.5384)">
			<title>动态连接线.2089</title>
			<path d="M0 154.86 C-0 157.51 5.63 158.55 11.22 158.56 C16.96 158.57 22.68 157.51 22.68 163.38" class="st4"/>
		</g>
		<g id="shape2090-84" v:mID="2090" v:groupContext="shape" v:layerMember="0" transform="translate(153.327,-105.054)">
			<title>动态连接线.2090</title>
			<path d="M0 152.03 C-0 163.37 14.05 163.37 28.1 163.37 C48.11 163.37 68.11 163.37 68.11 234.29" class="st5"/>
		</g>
		<g id="shape2092-87" v:mID="2092" v:groupContext="shape" transform="translate(5.81659,-0.125)">
			<title>圆角矩形.2092</title>
			<v:userDefs>
				<v:ud v:nameU="CTypeTopLeftSnip" v:prompt="" v:val="VT0(0):5"/>
				<v:ud v:nameU="CTypeTopRightSnip" v:prompt="" v:val="VT0(0):5"/>
				<v:ud v:nameU="CTypeBotLeftSnip" v:prompt="" v:val="VT0(0):5"/>
				<v:ud v:nameU="CTypeBotRightSnip" v:prompt="" v:val="VT0(0):5"/>
				<v:ud v:nameU="CornerLockHoriz" v:prompt="" v:val="VT0(1):5"/>
				<v:ud v:nameU="CornerLockVert" v:prompt="" v:val="VT0(1):5"/>
				<v:ud v:nameU="CornerLockDiag" v:prompt="" v:val="VT0(0):5"/>
				<v:ud v:nameU="TopLeftOffset" v:prompt="" v:val="VT0(0.15748031496063):24"/>
				<v:ud v:nameU="TopRightOffset" v:prompt="" v:val="VT0(0.15748031496063):24"/>
				<v:ud v:nameU="BotLeftOffset" v:prompt="" v:val="VT0(0.15748031496063):24"/>
				<v:ud v:nameU="BotRightOffset" v:prompt="" v:val="VT0(0.15748031496063):24"/>
				<v:ud v:nameU="visVersion" v:prompt="" v:val="VT0(15):26"/>
				<v:ud v:nameU="visMasterStencil" v:prompt="" v:val="VT4(Basic_M.vssx)"/>
				<v:ud v:nameU="TopLeftOffset" v:prompt="" v:val="VT0(0.078740154836949):1"/>
				<v:ud v:nameU="TopRightOffset" v:prompt="" v:val="VT0(0.078740154836949):1"/>
				<v:ud v:nameU="BotLeftOffset" v:prompt="" v:val="VT0(0.078740154836949):1"/>
				<v:ud v:nameU="BotRightOffset" v:prompt="" v:val="VT0(0.078740154836949):1"/>
			</v:userDefs>
			<path d="M5.67 152.03 L17.01 152.03 A5.6692 5.6692 -180 0 0 22.68 146.36 L22.68 135.03 A5.6692 5.6692 -180 0 0 17.01
						 129.36 L5.67 129.36 A5.6692 5.6692 -180 0 0 0 135.03 L0 146.36 A5.6692 5.6692 -180 0 0 5.67 152.03 Z"
					class="st1"/>
		</g>
		<g id="shape2093-89" v:mID="2093" v:groupContext="shape" transform="translate(16.4465,-10.7549)">
			<title>椭圆形</title>
			<v:userDefs>
				<v:ud v:nameU="visVersion" v:val="VT0(15):26"/>
				<v:ud v:nameU="visMasterStencil" v:prompt="" v:val="VT4(Basic_M.vssx)"/>
			</v:userDefs>
			<path d="M0 151.33 a0.708661 0.708661 0 0 1 1.41732 0 a0.708661 0.708661 0 0 1 -1.41732 0 Z" class="st7"/>
		</g>
		<g id="shape2094-91" v:mID="2094" v:groupContext="shape" v:layerMember="0" transform="translate(130.679,-116.393)">
			<title>动态连接线.2094</title>
			<path d="M0 152.03 C-0 141.4 -29.27 141.63 -54.17 141.41 C-82.32 141.17 -104.88 140.35 -115.34 153.74 C-124.72 165.74
						 -124.37 189.15 -124.9 209.61 C-125.39 228.56 -126.64 244.97 -120.06 252.43 C-117.42 255.42 -113.52 256.96
						 -113.52 256.96" class="st5"/>
		</g>
		<g id="shape2104-94" v:mID="2104" v:groupContext="shape" transform="translate(152.509,-10.7549)">
			<title>椭圆形.2104</title>
			<v:userDefs>
				<v:ud v:nameU="visVersion" v:val="VT0(15):26"/>
				<v:ud v:nameU="visMasterStencil" v:prompt="" v:val="VT4(Basic_M.vssx)"/>
			</v:userDefs>
			<path d="M0 151.33 a0.708661 0.708661 0 0 1 1.41732 0 a0.708661 0.708661 0 0 1 -1.41732 0 Z" class="st7"/>
		</g>
		<g id="shape2105-96" v:mID="2105" v:groupContext="shape" transform="translate(197.973,-10.7549)">
			<title>椭圆形.2105</title>
			<v:userDefs>
				<v:ud v:nameU="visVersion" v:val="VT0(15):26"/>
				<v:ud v:nameU="visMasterStencil" v:prompt="" v:val="VT4(Basic_M.vssx)"/>
			</v:userDefs>
			<path d="M0 151.33 a0.708661 0.708661 0 0 1 1.41732 0 a0.708661 0.708661 0 0 1 -1.41732 0 Z" class="st7"/>
		</g>
		<g id="shape2106-98" v:mID="2106" v:groupContext="shape" transform="translate(243.494,-10.7549)">
			<title>椭圆形.2106</title>
			<v:userDefs>
				<v:ud v:nameU="visVersion" v:val="VT0(15):26"/>
				<v:ud v:nameU="visMasterStencil" v:prompt="" v:val="VT4(Basic_M.vssx)"/>
			</v:userDefs>
			<path d="M0 151.33 a0.708661 0.708661 0 0 1 1.41732 0 a0.708661 0.708661 0 0 1 -1.41732 0 Z" class="st7"/>
		</g>
		<g id="shape2107-100" v:mID="2107" v:groupContext="shape" transform="translate(152.618,-104.345)">
			<title>椭圆形.2107</title>
			<v:userDefs>
				<v:ud v:nameU="visVersion" v:val="VT0(15):26"/>
				<v:ud v:nameU="visMasterStencil" v:prompt="" v:val="VT4(Basic_M.vssx)"/>
			</v:userDefs>
			<path d="M0 151.33 a0.708661 0.708661 0 0 1 1.41732 0 a0.708661 0.708661 0 0 1 -1.41732 0 Z" class="st7"/>
		</g>
		<g id="shape2109-102" v:mID="2109" v:groupContext="shape" transform="translate(152.618,-41.936)">
			<title>椭圆形.2109</title>
			<v:userDefs>
				<v:ud v:nameU="visVersion" v:val="VT0(15):26"/>
				<v:ud v:nameU="visMasterStencil" v:prompt="" v:val="VT4(Basic_M.vssx)"/>
			</v:userDefs>
			<path d="M0 151.33 a0.708661 0.708661 0 0 1 1.41732 0 a0.708661 0.708661 0 0 1 -1.41732 0 Z" class="st7"/>
		</g>
		<g id="shape2110-104" v:mID="2110" v:groupContext="shape" transform="translate(107.155,-10.7549)">
			<title>椭圆形.2110</title>
			<v:userDefs>
				<v:ud v:nameU="visVersion" v:val="VT0(15):26"/>
				<v:ud v:nameU="visMasterStencil" v:prompt="" v:val="VT4(Basic_M.vssx)"/>
			</v:userDefs>
			<path d="M0 151.33 a0.708661 0.708661 0 0 1 1.41732 0 a0.708661 0.708661 0 0 1 -1.41732 0 Z" class="st7"/>
		</g>
		<g id="shape2112-106" v:mID="2112" v:groupContext="shape" transform="translate(61.8008,-10.7549)">
			<title>椭圆形.2112</title>
			<v:userDefs>
				<v:ud v:nameU="visVersion" v:val="VT0(15):26"/>
				<v:ud v:nameU="visMasterStencil" v:prompt="" v:val="VT4(Basic_M.vssx)"/>
			</v:userDefs>
			<path d="M0 151.33 a0.708661 0.708661 0 0 1 1.41732 0 a0.708661 0.708661 0 0 1 -1.41732 0 Z" class="st7"/>
		</g>
		<g id="shape2157-108" v:mID="2157" v:groupContext="shape" v:layerMember="0" transform="translate(137.765,-116.393)">
			<title>动态连接线.2157</title>
			<path d="M-7.09 146.67 L-7.09 146.31 L-7.09 123.7" class="st8"/>
		</g>
		<g id="shape2158-114" v:mID="2158" v:groupContext="shape" transform="translate(113.257,-126.707)">
			<title>工作表.2158</title>
			<desc>head</desc>
			<v:textBlock v:margins="rect(4,4,4,4)" v:tabSpace="42.5197"/>
			<v:textRect cx="34.5827" cy="142.034" width="69.17" height="20"/>
			<rect x="0" y="132.034" width="69.1654" height="20" class="st10"/>
			<text x="22.58" y="145.03" class="st2" v:langID="2052"><v:paragraph v:horizAlign="1"/><v:tabList/>head</text>		</g>
	</g>
</svg>
